<svg width="144" height="50" viewBox="0 0 144 50" fill="none" xmlns="http://www.w3.org/2000/svg">
<path d="M31.7965 16.73C31.5906 15.8903 31.2658 15.1537 30.8222 14.5199C30.3786 13.8704 29.8241 13.3238 29.1587 12.8802C28.5091 12.4208 27.7487 12.0801 26.8773 11.8583C26.0218 11.6207 25.0792 11.5019 24.0494 11.5019C21.8314 11.5019 19.9382 12.0326 18.3697 13.0941C16.8171 14.1555 15.6289 15.6844 14.8051 17.6806C13.9971 19.6768 13.5931 22.0849 13.5931 24.9049C13.5931 27.7566 13.9813 30.1964 14.7576 32.2243C15.5339 34.2522 16.6904 35.8048 18.2271 36.8821C19.7639 37.9592 21.673 38.4979 23.9543 38.4979C25.9664 38.4979 27.6378 38.205 28.9686 37.6187C30.3152 37.0326 31.3212 36.2008 31.9866 35.1235C32.652 34.0462 32.9847 32.7788 32.9847 31.3212L35.2661 31.5589H24.1444V22.1483H45.7223V28.8973C45.7223 33.3333 44.7799 37.1276 42.8946 40.2802C41.0249 43.4173 38.4425 45.8253 35.1473 47.5046C31.8678 49.1683 28.1051 50 23.8593 50C19.1223 50 14.9635 48.994 11.383 46.9819C7.8026 44.9698 5.00631 42.1023 2.99429 38.3793C0.998099 34.6562 0 30.2281 0 25.095C0 21.071 0.609948 17.5063 1.82984 14.4011C3.06559 11.2959 4.77659 8.67394 6.9629 6.53518C9.14922 4.38054 11.6762 2.75665 14.5437 1.66349C17.4112 0.554499 20.4848 0 23.7642 0C26.6476 0 29.3251 0.411915 31.7965 1.23574C34.2838 2.04372 36.4781 3.20025 38.3793 4.70532C40.2962 6.19455 41.841 7.96102 43.0132 10.0047C44.1858 12.0485 44.8985 14.2902 45.152 16.73H31.7965ZM78.1191 15.8745C77.9923 14.2902 77.3982 13.0545 76.3368 12.1673C75.2909 11.2801 73.6986 10.8365 71.5602 10.8365C70.1976 10.8365 69.0808 11.0028 68.2093 11.3355C67.3539 11.6524 66.72 12.0881 66.308 12.6426C65.8961 13.1971 65.6823 13.8308 65.6664 14.5437C65.6348 15.1299 65.7377 15.6606 65.9753 16.1359C66.2289 16.5953 66.6248 17.0152 67.1635 17.3954C67.7022 17.7598 68.3915 18.0925 69.231 18.3935C70.0708 18.6945 71.069 18.9639 72.2253 19.2015L76.2178 20.057C78.9109 20.6273 81.2163 21.3799 83.1332 22.3146C85.0501 23.2493 86.6186 24.3504 87.8384 25.6178C89.0583 26.8694 89.9535 28.2794 90.5238 29.8479C91.1101 31.4163 91.4109 33.1273 91.4268 34.9809C91.4109 38.1812 90.6112 40.8903 89.0266 43.1084C87.4425 45.3264 85.1769 47.0135 82.2302 48.1701C79.2991 49.3267 75.7743 49.9048 71.655 49.9048C67.4249 49.9048 63.7335 49.2791 60.5808 48.0273C57.4441 46.7759 55.0041 44.8509 53.2616 42.2529C51.5347 39.6386 50.6632 36.2959 50.6476 32.2243H63.1951C63.2743 33.7135 63.6465 34.9651 64.312 35.979C64.9774 36.993 65.9121 37.7614 67.1159 38.2842C68.3361 38.8069 69.7857 39.0682 71.465 39.0682C72.8751 39.0682 74.0552 38.8943 75.0058 38.5455C75.9564 38.1972 76.6773 37.7139 77.1684 37.096C77.6595 36.4781 77.9131 35.7731 77.9287 34.9809C77.9131 34.2363 77.6673 33.5867 77.1922 33.0323C76.7327 32.4619 75.9724 31.9549 74.9106 31.5114C73.8492 31.0519 72.4156 30.6242 70.6095 30.2281L65.7615 29.1825C61.4522 28.2477 58.0538 26.6872 55.5666 24.5009C53.0951 22.2987 51.8674 19.2965 51.8831 15.4943C51.8674 12.4049 52.6913 9.70373 54.3546 7.39068C56.034 5.06178 58.355 3.24778 61.3177 1.94867C64.296 0.649555 67.71 0 71.5602 0C75.4891 0 78.8872 0.657478 81.7547 1.97243C84.6226 3.28738 86.8324 5.14101 88.385 7.53325C89.9535 9.90969 90.7458 12.6901 90.7614 15.8745H78.1191ZM107.2 49.3345H92.9418L109.006 0.6654H127.067L143.132 49.3345H128.873L118.227 14.0684H117.847L107.2 49.3345ZM104.539 30.133H131.345V40.0189H104.539V30.133Z" fill="white"/>
</svg>
