<svg width="833" height="479" viewBox="0 0 833 479" fill="none" xmlns="http://www.w3.org/2000/svg">
<path opacity="0.35" d="M228.086 12.8959C231.647 12.8959 234.534 10.009 234.534 6.44794C234.534 2.88684 231.647 0 228.086 0C224.525 0 221.638 2.88684 221.638 6.44794C221.638 10.009 224.525 12.8959 228.086 12.8959Z" fill="#2A1E98"/>
<path opacity="0.35" d="M268.04 12.8959C271.601 12.8959 274.488 10.009 274.488 6.44794C274.488 2.88684 271.601 0 268.04 0C264.479 0 261.592 2.88684 261.592 6.44794C261.592 10.009 264.479 12.8959 268.04 12.8959Z" fill="#2A1E98"/>
<path d="M308.224 12.8959C311.785 12.8959 314.672 10.009 314.672 6.44794C314.672 2.88684 311.785 0 308.224 0C304.663 0 301.776 2.88684 301.776 6.44794C301.776 10.009 304.663 12.8959 308.224 12.8959Z" fill="#231E49"/>
<path opacity="0.35" d="M227.764 46.9775C232.571 46.9775 236.469 43.0803 236.469 38.2728C236.469 33.4653 232.571 29.5681 227.764 29.5681C222.956 29.5681 219.059 33.4653 219.059 38.2728C219.059 43.0803 222.956 46.9775 227.764 46.9775Z" fill="#2A1E98"/>
<path opacity="0.35" d="M267.889 46.9775C272.696 46.9775 276.594 43.0803 276.594 38.2728C276.594 33.4653 272.696 29.5681 267.889 29.5681C263.081 29.5681 259.184 33.4653 259.184 38.2728C259.184 43.0803 263.081 46.9775 267.889 46.9775Z" fill="#2A1E98"/>
<path opacity="0.35" d="M308.014 46.9775C312.821 46.9775 316.719 43.0803 316.719 38.2728C316.719 33.4653 312.821 29.5681 308.014 29.5681C303.206 29.5681 299.309 33.4653 299.309 38.2728C299.309 43.0803 303.206 46.9775 308.014 46.9775Z" fill="#2A1E98"/>
<path opacity="0.35" d="M347.582 50.504C354.092 50.504 359.369 45.2268 359.369 38.7169C359.369 32.2071 354.092 26.9298 347.582 26.9298C341.072 26.9298 335.795 32.2071 335.795 38.7169C335.795 45.2268 341.072 50.504 347.582 50.504Z" fill="#2A1E98"/>
<path opacity="0.35" d="M148.075 87.2783C154.585 87.2783 159.862 82.001 159.862 75.4912C159.862 68.9814 154.585 63.7041 148.075 63.7041C141.565 63.7041 136.288 68.9814 136.288 75.4912C136.288 82.001 141.565 87.2783 148.075 87.2783Z" fill="#2A1E98"/>
<path opacity="0.35" d="M187.083 87.2783C193.593 87.2783 198.87 82.001 198.87 75.4912C198.87 68.9814 193.593 63.7041 187.083 63.7041C180.573 63.7041 175.296 68.9814 175.296 75.4912C175.296 82.001 180.573 87.2783 187.083 87.2783Z" fill="#2A1E98"/>
<path opacity="0.35" d="M227.208 87.2783C233.717 87.2783 238.995 82.001 238.995 75.4912C238.995 68.9814 233.717 63.7041 227.208 63.7041C220.698 63.7041 215.42 68.9814 215.42 75.4912C215.42 82.001 220.698 87.2783 227.208 87.2783Z" fill="#2A1E98"/>
<path opacity="0.35" d="M267.333 87.2783C273.842 87.2783 279.12 82.001 279.12 75.4912C279.12 68.9814 273.842 63.7041 267.333 63.7041C260.823 63.7041 255.545 68.9814 255.545 75.4912C255.545 82.001 260.823 87.2783 267.333 87.2783Z" fill="#2A1E98"/>
<path opacity="0.35" d="M307.458 87.2783C313.967 87.2783 319.245 82.001 319.245 75.4912C319.245 68.9814 313.967 63.7041 307.458 63.7041C300.948 63.7041 295.67 68.9814 295.67 75.4912C295.67 82.001 300.948 87.2783 307.458 87.2783Z" fill="#2A1E98"/>
<path opacity="0.35" d="M347.582 87.2783C354.092 87.2783 359.369 82.001 359.369 75.4912C359.369 68.9814 354.092 63.7041 347.582 63.7041C341.072 63.7041 335.795 68.9814 335.795 75.4912C335.795 82.001 341.072 87.2783 347.582 87.2783Z" fill="#2A1E98"/>
<path d="M627.787 87.5742C634.297 87.5742 639.574 82.2969 639.574 75.7871C639.574 69.2773 634.297 64 627.787 64C621.277 64 616 69.2773 616 75.7871C616 82.2969 621.277 87.5742 627.787 87.5742Z" fill="#2A1E98"/>
<path opacity="0.35" d="M666.795 87.5742C673.305 87.5742 678.582 82.2969 678.582 75.7871C678.582 69.2773 673.305 64 666.795 64C660.285 64 655.008 69.2773 655.008 75.7871C655.008 82.2969 660.285 87.5742 666.795 87.5742Z" fill="#2A1E98"/>
<path opacity="0.35" d="M109.067 128.52C115.577 128.52 120.854 123.243 120.854 116.733C120.854 110.223 115.577 104.946 109.067 104.946C102.557 104.946 97.2798 110.223 97.2798 116.733C97.2798 123.243 102.557 128.52 109.067 128.52Z" fill="#2A1E98"/>
<path d="M148.075 128.52C154.585 128.52 159.862 123.243 159.862 116.733C159.862 110.223 154.585 104.946 148.075 104.946C141.565 104.946 136.288 110.223 136.288 116.733C136.288 123.243 141.565 128.52 148.075 128.52Z" fill="#2A1E98"/>
<path d="M187.083 128.52C193.593 128.52 198.87 123.243 198.87 116.733C198.87 110.223 193.593 104.946 187.083 104.946C180.573 104.946 175.296 110.223 175.296 116.733C175.296 123.243 180.573 128.52 187.083 128.52Z" fill="#2A1E98"/>
<path d="M227.208 128.52C233.717 128.52 238.995 123.243 238.995 116.733C238.995 110.223 233.717 104.946 227.208 104.946C220.698 104.946 215.42 110.223 215.42 116.733C215.42 123.243 220.698 128.52 227.208 128.52Z" fill="#2A1E98"/>
<path opacity="0.35" d="M267.333 128.52C273.842 128.52 279.12 123.243 279.12 116.733C279.12 110.223 273.842 104.946 267.333 104.946C260.823 104.946 255.545 110.223 255.545 116.733C255.545 123.243 260.823 128.52 267.333 128.52Z" fill="#2A1E98"/>
<path opacity="0.35" d="M307.458 128.52C313.967 128.52 319.245 123.243 319.245 116.733C319.245 110.223 313.967 104.946 307.458 104.946C300.948 104.946 295.67 110.223 295.67 116.733C295.67 123.243 300.948 128.52 307.458 128.52Z" fill="#2A1E98"/>
<path opacity="0.35" d="M347.582 128.52C354.092 128.52 359.369 123.243 359.369 116.733C359.369 110.223 354.092 104.946 347.582 104.946C341.072 104.946 335.795 110.223 335.795 116.733C335.795 123.243 341.072 128.52 347.582 128.52Z" fill="#2A1E98"/>
<path opacity="0.35" d="M627.787 128.816C634.297 128.816 639.574 123.539 639.574 117.029C639.574 110.519 634.297 105.242 627.787 105.242C621.277 105.242 616 110.519 616 117.029C616 123.539 621.277 128.816 627.787 128.816Z" fill="#2A1E98"/>
<path opacity="0.35" d="M666.795 128.816C673.305 128.816 678.582 123.539 678.582 117.029C678.582 110.519 673.305 105.242 666.795 105.242C660.285 105.242 655.008 110.519 655.008 117.029C655.008 123.539 660.285 128.816 666.795 128.816Z" fill="#2A1E98"/>
<path opacity="0.35" d="M109.067 169.762C115.577 169.762 120.854 164.485 120.854 157.975C120.854 151.465 115.577 146.188 109.067 146.188C102.557 146.188 97.2798 151.465 97.2798 157.975C97.2798 164.485 102.557 169.762 109.067 169.762Z" fill="#2A1E98"/>
<path opacity="0.35" d="M148.075 169.762C154.585 169.762 159.862 164.485 159.862 157.975C159.862 151.465 154.585 146.188 148.075 146.188C141.565 146.188 136.288 151.465 136.288 157.975C136.288 164.485 141.565 169.762 148.075 169.762Z" fill="#2A1E98"/>
<path opacity="0.35" d="M187.083 169.762C193.593 169.762 198.87 164.485 198.87 157.975C198.87 151.465 193.593 146.188 187.083 146.188C180.573 146.188 175.296 151.465 175.296 157.975C175.296 164.485 180.573 169.762 187.083 169.762Z" fill="#2A1E98"/>
<path opacity="0.35" d="M227.208 169.762C233.717 169.762 238.995 164.485 238.995 157.975C238.995 151.465 233.717 146.188 227.208 146.188C220.698 146.188 215.42 151.465 215.42 157.975C215.42 164.485 220.698 169.762 227.208 169.762Z" fill="#2A1E98"/>
<path d="M267.333 169.762C273.842 169.762 279.12 164.485 279.12 157.975C279.12 151.465 273.842 146.188 267.333 146.188C260.823 146.188 255.545 151.465 255.545 157.975C255.545 164.485 260.823 169.762 267.333 169.762Z" fill="#2A1E98"/>
<path d="M307.458 169.762C313.967 169.762 319.245 164.485 319.245 157.975C319.245 151.465 313.967 146.188 307.458 146.188C300.948 146.188 295.67 151.465 295.67 157.975C295.67 164.485 300.948 169.762 307.458 169.762Z" fill="#2A1E98"/>
<path opacity="0.35" d="M347.582 169.762C354.092 169.762 359.369 164.485 359.369 157.975C359.369 151.465 354.092 146.188 347.582 146.188C341.072 146.188 335.795 151.465 335.795 157.975C335.795 164.485 341.072 169.762 347.582 169.762Z" fill="#2A1E98"/>
<path d="M627.787 170.058C634.297 170.058 639.574 164.78 639.574 158.271C639.574 151.761 634.297 146.484 627.787 146.484C621.277 146.484 616 151.761 616 158.271C616 164.78 621.277 170.058 627.787 170.058Z" fill="#2A1E98"/>
<path opacity="0.35" d="M666.795 170.058C673.305 170.058 678.582 164.78 678.582 158.271C678.582 151.761 673.305 146.484 666.795 146.484C660.285 146.484 655.008 151.761 655.008 158.271C655.008 164.78 660.285 170.058 666.795 170.058Z" fill="#2A1E98"/>
<path opacity="0.35" d="M706.92 170.058C713.43 170.058 718.707 164.78 718.707 158.271C718.707 151.761 713.43 146.484 706.92 146.484C700.41 146.484 695.133 151.761 695.133 158.271C695.133 164.78 700.41 170.058 706.92 170.058Z" fill="#2A1E98"/>
<path opacity="0.35" d="M744.812 170.058C751.321 170.058 756.599 164.78 756.599 158.271C756.599 151.761 751.321 146.484 744.812 146.484C738.302 146.484 733.024 151.761 733.024 158.271C733.024 164.78 738.302 170.058 744.812 170.058Z" fill="#2A1E98"/>
<path d="M32.2832 199.296C35.7885 199.296 38.6301 196.454 38.6301 192.949C38.6301 189.444 35.7885 186.602 32.2832 186.602C28.7779 186.602 25.9363 189.444 25.9363 192.949C25.9363 196.454 28.7779 199.296 32.2832 199.296Z" fill="#2A1E98"/>
<path opacity="0.35" d="M70.1745 199.296C73.6798 199.296 76.5214 196.454 76.5214 192.949C76.5214 189.444 73.6798 186.602 70.1745 186.602C66.6692 186.602 63.8276 189.444 63.8276 192.949C63.8276 196.454 66.6692 199.296 70.1745 199.296Z" fill="#2A1E98"/>
<path opacity="0.35" d="M109.067 209.887C115.577 209.887 120.854 204.609 120.854 198.1C120.854 191.59 115.577 186.312 109.067 186.312C102.557 186.312 97.2798 191.59 97.2798 198.1C97.2798 204.609 102.557 209.887 109.067 209.887Z" fill="#2A1E98"/>
<path opacity="0.35" d="M148.075 209.887C154.585 209.887 159.862 204.609 159.862 198.1C159.862 191.59 154.585 186.312 148.075 186.312C141.565 186.312 136.288 191.59 136.288 198.1C136.288 204.609 141.565 209.887 148.075 209.887Z" fill="#2A1E98"/>
<path d="M187.083 209.887C193.593 209.887 198.87 204.609 198.87 198.1C198.87 191.59 193.593 186.312 187.083 186.312C180.573 186.312 175.296 191.59 175.296 198.1C175.296 204.609 180.573 209.887 187.083 209.887Z" fill="#2A1E98"/>
<path opacity="0.35" d="M227.208 209.887C233.717 209.887 238.995 204.609 238.995 198.1C238.995 191.59 233.717 186.312 227.208 186.312C220.698 186.312 215.42 191.59 215.42 198.1C215.42 204.609 220.698 209.887 227.208 209.887Z" fill="#2A1E98"/>
<path opacity="0.35" d="M267.333 209.887C273.842 209.887 279.12 204.609 279.12 198.1C279.12 191.59 273.842 186.312 267.333 186.312C260.823 186.312 255.545 191.59 255.545 198.1C255.545 204.609 260.823 209.887 267.333 209.887Z" fill="#2A1E98"/>
<path d="M307.458 209.887C313.967 209.887 319.245 204.609 319.245 198.1C319.245 191.59 313.967 186.312 307.458 186.312C300.948 186.312 295.67 191.59 295.67 198.1C295.67 204.609 300.948 209.887 307.458 209.887Z" fill="#2A1E98"/>
<path opacity="0.35" d="M347.582 209.887C354.092 209.887 359.369 204.609 359.369 198.1C359.369 191.59 354.092 186.312 347.582 186.312C341.072 186.312 335.795 191.59 335.795 198.1C335.795 204.609 341.072 209.887 347.582 209.887Z" fill="#2A1E98"/>
<path opacity="0.35" d="M627.787 210.183C634.297 210.183 639.574 204.905 639.574 198.395C639.574 191.886 634.297 186.608 627.787 186.608C621.277 186.608 616 191.886 616 198.395C616 204.905 621.277 210.183 627.787 210.183Z" fill="#2A1E98"/>
<path opacity="0.35" d="M666.795 210.183C673.305 210.183 678.582 204.905 678.582 198.395C678.582 191.886 673.305 186.608 666.795 186.608C660.285 186.608 655.008 191.886 655.008 198.395C655.008 204.905 660.285 210.183 666.795 210.183Z" fill="#2A1E98"/>
<path opacity="0.35" d="M706.92 210.183C713.43 210.183 718.707 204.905 718.707 198.395C718.707 191.886 713.43 186.608 706.92 186.608C700.41 186.608 695.133 191.886 695.133 198.395C695.133 204.905 700.41 210.183 706.92 210.183Z" fill="#2A1E98"/>
<path opacity="0.35" d="M744.812 210.183C751.321 210.183 756.599 204.905 756.599 198.395C756.599 191.886 751.321 186.608 744.812 186.608C738.302 186.608 733.024 191.886 733.024 198.395C733.024 204.905 738.302 210.183 744.812 210.183Z" fill="#2A1E98"/>
<path d="M781.578 207.886C786.563 207.886 790.605 203.845 790.605 198.859C790.605 193.874 786.563 189.832 781.578 189.832C776.592 189.832 772.551 193.874 772.551 198.859C772.551 203.845 776.592 207.886 781.578 207.886Z" fill="#2A1E98"/>
<path d="M814.035 207.242C818.486 207.242 822.094 203.633 822.094 199.182C822.094 194.73 818.486 191.122 814.035 191.122C809.583 191.122 805.975 194.73 805.975 199.182C805.975 203.633 809.583 207.242 814.035 207.242Z" fill="#2A1E98"/>
<path d="M4.5335 241.913C7.03729 241.913 9.06701 239.883 9.06701 237.379C9.06701 234.875 7.03729 232.846 4.5335 232.846C2.02972 232.846 0 234.875 0 237.379C0 239.883 2.02972 241.913 4.5335 241.913Z" fill="#2A1E98"/>
<path opacity="0.35" d="M37.5952 243.726C41.1005 243.726 43.9421 240.884 43.9421 237.379C43.9421 233.874 41.1005 231.032 37.5952 231.032C34.0899 231.032 31.2483 233.874 31.2483 237.379C31.2483 240.884 34.0899 243.726 37.5952 243.726Z" fill="#2A1E98"/>
<path d="M74.1675 250.574C80.6773 250.574 85.9546 245.297 85.9546 238.787C85.9546 232.277 80.6773 227 74.1675 227C67.6576 227 62.3804 232.277 62.3804 238.787C62.3804 245.297 67.6576 250.574 74.1675 250.574Z" fill="#2A1E98"/>
<path d="M112.059 250.574C118.568 250.574 123.846 245.297 123.846 238.787C123.846 232.277 118.568 227 112.059 227C105.549 227 100.271 232.277 100.271 238.787C100.271 245.297 105.549 250.574 112.059 250.574Z" fill="#2A1E98"/>
<path opacity="0.35" d="M151.067 250.574C157.577 250.574 162.854 245.297 162.854 238.787C162.854 232.277 157.577 227 151.067 227C144.557 227 139.28 232.277 139.28 238.787C139.28 245.297 144.557 250.574 151.067 250.574Z" fill="#2A1E98"/>
<path opacity="0.35" d="M190.075 250.574C196.585 250.574 201.862 245.297 201.862 238.787C201.862 232.277 196.585 227 190.075 227C183.565 227 178.288 232.277 178.288 238.787C178.288 245.297 183.565 250.574 190.075 250.574Z" fill="#2A1E98"/>
<path opacity="0.35" d="M229.083 250.574C235.593 250.574 240.87 245.297 240.87 238.787C240.87 232.277 235.593 227 229.083 227C222.573 227 217.296 232.277 217.296 238.787C217.296 245.297 222.573 250.574 229.083 250.574Z" fill="#2A1E98"/>
<path opacity="0.35" d="M269.208 250.574C275.717 250.574 280.995 245.297 280.995 238.787C280.995 232.277 275.717 227 269.208 227C262.698 227 257.42 232.277 257.42 238.787C257.42 245.297 262.698 250.574 269.208 250.574Z" fill="#2A1E98"/>
<path opacity="0.35" d="M309.333 250.574C315.842 250.574 321.12 245.297 321.12 238.787C321.12 232.277 315.842 227 309.333 227C302.823 227 297.545 232.277 297.545 238.787C297.545 245.297 302.823 250.574 309.333 250.574Z" fill="#2A1E98"/>
<path opacity="0.35" d="M349.458 250.574C355.967 250.574 361.245 245.297 361.245 238.787C361.245 232.277 355.967 227 349.458 227C342.948 227 337.67 232.277 337.67 238.787C337.67 245.297 342.948 250.574 349.458 250.574Z" fill="#2A1E98"/>
<path opacity="0.35" d="M629.662 250.87C636.172 250.87 641.449 245.593 641.449 239.083C641.449 232.573 636.172 227.296 629.662 227.296C623.152 227.296 617.875 232.573 617.875 239.083C617.875 245.593 623.152 250.87 629.662 250.87Z" fill="#2A1E98"/>
<path d="M669.787 250.87C676.297 250.87 681.574 245.593 681.574 239.083C681.574 232.573 676.297 227.296 669.787 227.296C663.277 227.296 658 232.573 658 239.083C658 245.593 663.277 250.87 669.787 250.87Z" fill="#2A1E98"/>
<path d="M708.795 250.87C715.305 250.87 720.582 245.593 720.582 239.083C720.582 232.573 715.305 227.296 708.795 227.296C702.285 227.296 697.008 232.573 697.008 239.083C697.008 245.593 702.285 250.87 708.795 250.87Z" fill="#2A1E98"/>
<path opacity="0.35" d="M748.92 250.87C755.43 250.87 760.707 245.593 760.707 239.083C760.707 232.573 755.43 227.296 748.92 227.296C742.41 227.296 737.133 232.573 737.133 239.083C737.133 245.593 742.41 250.87 748.92 250.87Z" fill="#2A1E98"/>
<path opacity="0.35" d="M786.812 250.87C793.321 250.87 798.599 245.593 798.599 239.083C798.599 232.573 793.321 227.296 786.812 227.296C780.302 227.296 775.024 232.573 775.024 239.083C775.024 245.593 780.302 250.87 786.812 250.87Z" fill="#2A1E98"/>
<path opacity="0.35" d="M823.578 248.574C828.563 248.574 832.605 244.532 832.605 239.547C832.605 234.561 828.563 230.52 823.578 230.52C818.592 230.52 814.551 234.561 814.551 239.547C814.551 244.532 818.592 248.574 823.578 248.574Z" fill="#2A1E98"/>
<path opacity="0.35" d="M4.5335 283.154C7.03729 283.154 9.06701 281.125 9.06701 278.621C9.06701 276.117 7.03729 274.087 4.5335 274.087C2.02972 274.087 0 276.117 0 278.621C0 281.125 2.02972 283.154 4.5335 283.154Z" fill="#2A1E98"/>
<path opacity="0.35" d="M37.5952 284.968C41.1005 284.968 43.9421 282.126 43.9421 278.621C43.9421 275.115 41.1005 272.274 37.5952 272.274C34.0899 272.274 31.2483 275.115 31.2483 278.621C31.2483 282.126 34.0899 284.968 37.5952 284.968Z" fill="#2A1E98"/>
<path opacity="0.35" d="M74.2832 285.257C77.7885 285.257 80.6301 282.416 80.6301 278.91C80.6301 275.405 77.7885 272.563 74.2832 272.563C70.7779 272.563 67.9363 275.405 67.9363 278.91C67.9363 282.416 70.7779 285.257 74.2832 285.257Z" fill="#2A1E98"/>
<path opacity="0.35" d="M112.175 285.257C115.68 285.257 118.521 282.416 118.521 278.91C118.521 275.405 115.68 272.563 112.175 272.563C108.669 272.563 105.828 275.405 105.828 278.91C105.828 282.416 108.669 285.257 112.175 285.257Z" fill="#2A1E98"/>
<path opacity="0.35" d="M151.067 291.816C157.577 291.816 162.854 286.539 162.854 280.029C162.854 273.519 157.577 268.242 151.067 268.242C144.557 268.242 139.28 273.519 139.28 280.029C139.28 286.539 144.557 291.816 151.067 291.816Z" fill="#2A1E98"/>
<path opacity="0.35" d="M190.075 291.816C196.585 291.816 201.862 286.539 201.862 280.029C201.862 273.519 196.585 268.242 190.075 268.242C183.565 268.242 178.288 273.519 178.288 280.029C178.288 286.539 183.565 291.816 190.075 291.816Z" fill="#2A1E98"/>
<path opacity="0.35" d="M229.083 291.816C235.593 291.816 240.87 286.539 240.87 280.029C240.87 273.519 235.593 268.242 229.083 268.242C222.573 268.242 217.296 273.519 217.296 280.029C217.296 286.539 222.573 291.816 229.083 291.816Z" fill="#2A1E98"/>
<path opacity="0.35" d="M269.208 291.816C275.717 291.816 280.995 286.539 280.995 280.029C280.995 273.519 275.717 268.242 269.208 268.242C262.698 268.242 257.42 273.519 257.42 280.029C257.42 286.539 262.698 291.816 269.208 291.816Z" fill="#2A1E98"/>
<path opacity="0.35" d="M309.333 291.816C315.842 291.816 321.12 286.539 321.12 280.029C321.12 273.519 315.842 268.242 309.333 268.242C302.823 268.242 297.545 273.519 297.545 280.029C297.545 286.539 302.823 291.816 309.333 291.816Z" fill="#2A1E98"/>
<path opacity="0.35" d="M349.458 291.816C355.967 291.816 361.245 286.539 361.245 280.029C361.245 273.519 355.967 268.242 349.458 268.242C342.948 268.242 337.67 273.519 337.67 280.029C337.67 286.539 342.948 291.816 349.458 291.816Z" fill="#2A1E98"/>
<path opacity="0.35" d="M629.662 292.112C636.172 292.112 641.449 286.835 641.449 280.325C641.449 273.815 636.172 268.538 629.662 268.538C623.152 268.538 617.875 273.815 617.875 280.325C617.875 286.835 623.152 292.112 629.662 292.112Z" fill="#2A1E98"/>
<path opacity="0.35" d="M669.787 292.112C676.297 292.112 681.574 286.835 681.574 280.325C681.574 273.815 676.297 268.538 669.787 268.538C663.277 268.538 658 273.815 658 280.325C658 286.835 663.277 292.112 669.787 292.112Z" fill="#2A1E98"/>
<path opacity="0.35" d="M708.795 292.112C715.305 292.112 720.582 286.835 720.582 280.325C720.582 273.815 715.305 268.538 708.795 268.538C702.285 268.538 697.008 273.815 697.008 280.325C697.008 286.835 702.285 292.112 708.795 292.112Z" fill="#2A1E98"/>
<path opacity="0.35" d="M748.92 292.112C755.43 292.112 760.707 286.835 760.707 280.325C760.707 273.815 755.43 268.538 748.92 268.538C742.41 268.538 737.133 273.815 737.133 280.325C737.133 286.835 742.41 292.112 748.92 292.112Z" fill="#2A1E98"/>
<path d="M786.812 292.112C793.321 292.112 798.599 286.835 798.599 280.325C798.599 273.815 793.321 268.538 786.812 268.538C780.302 268.538 775.024 273.815 775.024 280.325C775.024 286.835 780.302 292.112 786.812 292.112Z" fill="#2A1E98"/>
<path opacity="0.35" d="M821.643 285.947C824.848 285.947 827.446 283.349 827.446 280.144C827.446 276.939 824.848 274.341 821.643 274.341C818.438 274.341 815.84 276.939 815.84 280.144C815.84 283.349 818.438 285.947 821.643 285.947Z" fill="#2A1E98"/>
<path opacity="0.35" d="M37.5952 323.976C41.1005 323.976 43.9421 321.134 43.9421 317.629C43.9421 314.123 41.1005 311.282 37.5952 311.282C34.0899 311.282 31.2483 314.123 31.2483 317.629C31.2483 321.134 34.0899 323.976 37.5952 323.976Z" fill="#2A1E98"/>
<path opacity="0.35" d="M74.2832 324.265C77.7885 324.265 80.6301 321.424 80.6301 317.918C80.6301 314.413 77.7885 311.572 74.2832 311.572C70.7779 311.572 67.9363 314.413 67.9363 317.918C67.9363 321.424 70.7779 324.265 74.2832 324.265Z" fill="#2A1E98"/>
<path opacity="0.35" d="M112.175 324.265C115.68 324.265 118.521 321.424 118.521 317.918C118.521 314.413 115.68 311.572 112.175 311.572C108.669 311.572 105.828 314.413 105.828 317.918C105.828 321.424 108.669 324.265 112.175 324.265Z" fill="#2A1E98"/>
<path opacity="0.35" d="M151.067 330.824C157.577 330.824 162.854 325.547 162.854 319.037C162.854 312.527 157.577 307.25 151.067 307.25C144.557 307.25 139.28 312.527 139.28 319.037C139.28 325.547 144.557 330.824 151.067 330.824Z" fill="#2A1E98"/>
<path opacity="0.35" d="M190.075 330.824C196.585 330.824 201.862 325.547 201.862 319.037C201.862 312.527 196.585 307.25 190.075 307.25C183.565 307.25 178.288 312.527 178.288 319.037C178.288 325.547 183.565 330.824 190.075 330.824Z" fill="#2A1E98"/>
<path opacity="0.35" d="M229.083 330.824C235.593 330.824 240.87 325.547 240.87 319.037C240.87 312.527 235.593 307.25 229.083 307.25C222.573 307.25 217.296 312.527 217.296 319.037C217.296 325.547 222.573 330.824 229.083 330.824Z" fill="#2A1E98"/>
<path opacity="0.35" d="M269.208 330.824C275.717 330.824 280.995 325.547 280.995 319.037C280.995 312.527 275.717 307.25 269.208 307.25C262.698 307.25 257.42 312.527 257.42 319.037C257.42 325.547 262.698 330.824 269.208 330.824Z" fill="#2A1E98"/>
<path opacity="0.35" d="M309.333 330.824C315.842 330.824 321.12 325.547 321.12 319.037C321.12 312.527 315.842 307.25 309.333 307.25C302.823 307.25 297.545 312.527 297.545 319.037C297.545 325.547 302.823 330.824 309.333 330.824Z" fill="#2A1E98"/>
<path opacity="0.35" d="M349.458 330.824C355.967 330.824 361.245 325.547 361.245 319.037C361.245 312.527 355.967 307.25 349.458 307.25C342.948 307.25 337.67 312.527 337.67 319.037C337.67 325.547 342.948 330.824 349.458 330.824Z" fill="#2A1E98"/>
<path d="M629.662 331.12C636.172 331.12 641.449 325.843 641.449 319.333C641.449 312.823 636.172 307.546 629.662 307.546C623.152 307.546 617.875 312.823 617.875 319.333C617.875 325.843 623.152 331.12 629.662 331.12Z" fill="#2A1E98"/>
<path opacity="0.35" d="M669.787 331.12C676.297 331.12 681.574 325.843 681.574 319.333C681.574 312.823 676.297 307.546 669.787 307.546C663.277 307.546 658 312.823 658 319.333C658 325.843 663.277 331.12 669.787 331.12Z" fill="#2A1E98"/>
<path opacity="0.35" d="M709.904 328.824C714.89 328.824 718.931 324.782 718.931 319.797C718.931 314.811 714.89 310.77 709.904 310.77C704.919 310.77 700.877 314.811 700.877 319.797C700.877 324.782 704.919 328.824 709.904 328.824Z" fill="#2A1E98"/>
<path opacity="0.35" d="M750.029 328.824C755.015 328.824 759.056 324.782 759.056 319.797C759.056 314.811 755.015 310.77 750.029 310.77C745.044 310.77 741.002 314.811 741.002 319.797C741.002 324.782 745.044 328.824 750.029 328.824Z" fill="#2A1E98"/>
<path opacity="0.35" d="M785.986 324.955C789.191 324.955 791.789 322.357 791.789 319.152C791.789 315.947 789.191 313.349 785.986 313.349C782.781 313.349 780.183 315.947 780.183 319.152C780.183 322.357 782.781 324.955 785.986 324.955Z" fill="#2A1E98"/>
<path opacity="0.35" d="M821.643 324.955C824.848 324.955 827.446 322.357 827.446 319.152C827.446 315.947 824.848 313.349 821.643 313.349C818.438 313.349 815.84 315.947 815.84 319.152C815.84 322.357 818.438 324.955 821.643 324.955Z" fill="#2A1E98"/>
<path opacity="0.35" d="M112.175 364.39C115.68 364.39 118.521 361.549 118.521 358.043C118.521 354.538 115.68 351.696 112.175 351.696C108.669 351.696 105.828 354.538 105.828 358.043C105.828 361.549 108.669 364.39 112.175 364.39Z" fill="#2A1E98"/>
<path opacity="0.35" d="M151.067 370.949C157.577 370.949 162.854 365.672 162.854 359.162C162.854 352.652 157.577 347.375 151.067 347.375C144.557 347.375 139.28 352.652 139.28 359.162C139.28 365.672 144.557 370.949 151.067 370.949Z" fill="#2A1E98"/>
<path d="M190.075 370.949C196.585 370.949 201.862 365.672 201.862 359.162C201.862 352.652 196.585 347.375 190.075 347.375C183.565 347.375 178.288 352.652 178.288 359.162C178.288 365.672 183.565 370.949 190.075 370.949Z" fill="#2A1E98"/>
<path opacity="0.35" d="M229.083 370.949C235.593 370.949 240.87 365.672 240.87 359.162C240.87 352.652 235.593 347.375 229.083 347.375C222.573 347.375 217.296 352.652 217.296 359.162C217.296 365.672 222.573 370.949 229.083 370.949Z" fill="#2A1E98"/>
<path opacity="0.35" d="M269.208 370.949C275.717 370.949 280.995 365.672 280.995 359.162C280.995 352.652 275.717 347.375 269.208 347.375C262.698 347.375 257.42 352.652 257.42 359.162C257.42 365.672 262.698 370.949 269.208 370.949Z" fill="#2A1E98"/>
<path opacity="0.35" d="M309.333 370.949C315.842 370.949 321.12 365.672 321.12 359.162C321.12 352.652 315.842 347.375 309.333 347.375C302.823 347.375 297.545 352.652 297.545 359.162C297.545 365.672 302.823 370.949 309.333 370.949Z" fill="#2A1E98"/>
<path opacity="0.35" d="M349.458 370.949C355.967 370.949 361.245 365.672 361.245 359.162C361.245 352.652 355.967 347.375 349.458 347.375C342.948 347.375 337.67 352.652 337.67 359.162C337.67 365.672 342.948 370.949 349.458 370.949Z" fill="#2A1E98"/>
<path opacity="0.35" d="M629.662 371.245C636.172 371.245 641.449 365.967 641.449 359.458C641.449 352.948 636.172 347.671 629.662 347.671C623.152 347.671 617.875 352.948 617.875 359.458C617.875 365.967 623.152 371.245 629.662 371.245Z" fill="#2A1E98"/>
<path opacity="0.35" d="M670.896 368.949C675.882 368.949 679.923 364.907 679.923 359.922C679.923 354.936 675.882 350.894 670.896 350.894C665.911 350.894 661.869 354.936 661.869 359.922C661.869 364.907 665.911 368.949 670.896 368.949Z" fill="#2A1E98"/>
<path d="M707.969 365.08C711.174 365.08 713.772 362.482 713.772 359.277C713.772 356.072 711.174 353.474 707.969 353.474C704.764 353.474 702.166 356.072 702.166 359.277C702.166 362.482 704.764 365.08 707.969 365.08Z" fill="#2A1E98"/>
<path opacity="0.35" d="M191.183 405.427C196.169 405.427 200.21 401.386 200.21 396.4C200.21 391.415 196.169 387.373 191.183 387.373C186.198 387.373 182.156 391.415 182.156 396.4C182.156 401.386 186.198 405.427 191.183 405.427Z" fill="#2A1E98"/>
<path opacity="0.35" d="M230.192 405.427C235.177 405.427 239.219 401.386 239.219 396.4C239.219 391.415 235.177 387.373 230.192 387.373C225.206 387.373 221.165 391.415 221.165 396.4C221.165 401.386 225.206 405.427 230.192 405.427Z" fill="#2A1E98"/>
<path opacity="0.35" d="M270.316 405.427C275.302 405.427 279.344 401.386 279.344 396.4C279.344 391.415 275.302 387.373 270.316 387.373C265.331 387.373 261.289 391.415 261.289 396.4C261.289 401.386 265.331 405.427 270.316 405.427Z" fill="#2A1E98"/>
<path opacity="0.35" d="M310.441 405.427C315.427 405.427 319.468 401.386 319.468 396.4C319.468 391.415 315.427 387.373 310.441 387.373C305.456 387.373 301.414 391.415 301.414 396.4C301.414 401.386 305.456 405.427 310.441 405.427Z" fill="#2A1E98"/>
<path opacity="0.35" d="M350.566 405.427C355.552 405.427 359.594 401.386 359.594 396.4C359.594 391.415 355.552 387.373 350.566 387.373C345.581 387.373 341.539 391.415 341.539 396.4C341.539 401.386 345.581 405.427 350.566 405.427Z" fill="#2A1E98"/>
<path opacity="0.35" d="M508.494 12.8959C512.055 12.8959 514.942 10.009 514.942 6.44794C514.942 2.88684 512.055 0 508.494 0C504.933 0 502.046 2.88684 502.046 6.44794C502.046 10.009 504.933 12.8959 508.494 12.8959Z" fill="#2A1E98"/>
<path d="M548.679 12.8959C552.24 12.8959 555.127 10.009 555.127 6.44794C555.127 2.88684 552.24 0 548.679 0C545.118 0 542.231 2.88684 542.231 6.44794C542.231 10.009 545.118 12.8959 548.679 12.8959Z" fill="#2A1E98"/>
<path opacity="0.35" d="M508.343 46.9775C513.151 46.9775 517.048 43.0803 517.048 38.2728C517.048 33.4653 513.151 29.5681 508.343 29.5681C503.536 29.5681 499.639 33.4653 499.639 38.2728C499.639 43.0803 503.536 46.9775 508.343 46.9775Z" fill="#2A1E98"/>
<path opacity="0.35" d="M548.468 46.9775C553.276 46.9775 557.173 43.0803 557.173 38.2728C557.173 33.4653 553.276 29.5681 548.468 29.5681C543.661 29.5681 539.764 33.4653 539.764 38.2728C539.764 43.0803 543.661 46.9775 548.468 46.9775Z" fill="#2A1E98"/>
<path opacity="0.35" d="M588.037 50.504C594.547 50.504 599.824 45.2268 599.824 38.7169C599.824 32.2071 594.547 26.9298 588.037 26.9298C581.527 26.9298 576.25 32.2071 576.25 38.7169C576.25 45.2268 581.527 50.504 588.037 50.504Z" fill="#2A1E98"/>
<path opacity="0.35" d="M507.787 87.2783C514.297 87.2783 519.574 82.001 519.574 75.4912C519.574 68.9814 514.297 63.7041 507.787 63.7041C501.277 63.7041 496 68.9814 496 75.4912C496 82.001 501.277 87.2783 507.787 87.2783Z" fill="#2A1E98"/>
<path opacity="0.35" d="M547.912 87.2783C554.422 87.2783 559.699 82.001 559.699 75.4912C559.699 68.9814 554.422 63.7041 547.912 63.7041C541.402 63.7041 536.125 68.9814 536.125 75.4912C536.125 82.001 541.402 87.2783 547.912 87.2783Z" fill="#2A1E98"/>
<path opacity="0.35" d="M588.037 87.2783C594.547 87.2783 599.824 82.001 599.824 75.4912C599.824 68.9814 594.547 63.7041 588.037 63.7041C581.527 63.7041 576.25 68.9814 576.25 75.4912C576.25 82.001 581.527 87.2783 588.037 87.2783Z" fill="#2A1E98"/>
<path d="M507.787 128.52C514.297 128.52 519.574 123.243 519.574 116.733C519.574 110.223 514.297 104.946 507.787 104.946C501.277 104.946 496 110.223 496 116.733C496 123.243 501.277 128.52 507.787 128.52Z" fill="#2A1E98"/>
<path opacity="0.35" d="M547.912 128.52C554.422 128.52 559.699 123.243 559.699 116.733C559.699 110.223 554.422 104.946 547.912 104.946C541.402 104.946 536.125 110.223 536.125 116.733C536.125 123.243 541.402 128.52 547.912 128.52Z" fill="#2A1E98"/>
<path opacity="0.35" d="M588.037 128.52C594.547 128.52 599.824 123.243 599.824 116.733C599.824 110.223 594.547 104.946 588.037 104.946C581.527 104.946 576.25 110.223 576.25 116.733C576.25 123.243 581.527 128.52 588.037 128.52Z" fill="#2A1E98"/>
<path d="M507.787 169.762C514.297 169.762 519.574 164.485 519.574 157.975C519.574 151.465 514.297 146.188 507.787 146.188C501.277 146.188 496 151.465 496 157.975C496 164.485 501.277 169.762 507.787 169.762Z" fill="#231E49"/>
<path d="M547.912 169.762C554.422 169.762 559.699 164.485 559.699 157.975C559.699 151.465 554.422 146.188 547.912 146.188C541.402 146.188 536.125 151.465 536.125 157.975C536.125 164.485 541.402 169.762 547.912 169.762Z" fill="#2A1E98"/>
<path opacity="0.35" d="M588.037 169.762C594.547 169.762 599.824 164.485 599.824 157.975C599.824 151.465 594.547 146.188 588.037 146.188C581.527 146.188 576.25 151.465 576.25 157.975C576.25 164.485 581.527 169.762 588.037 169.762Z" fill="#2A1E98"/>
<path opacity="0.35" d="M507.787 209.887C514.297 209.887 519.574 204.609 519.574 198.1C519.574 191.59 514.297 186.312 507.787 186.312C501.277 186.312 496 191.59 496 198.1C496 204.609 501.277 209.887 507.787 209.887Z" fill="#2A1E98"/>
<path d="M547.912 209.887C554.422 209.887 559.699 204.609 559.699 198.1C559.699 191.59 554.422 186.312 547.912 186.312C541.402 186.312 536.125 191.59 536.125 198.1C536.125 204.609 541.402 209.887 547.912 209.887Z" fill="#231E49"/>
<path opacity="0.35" d="M588.037 209.887C594.547 209.887 599.824 204.609 599.824 198.1C599.824 191.59 594.547 186.312 588.037 186.312C581.527 186.312 576.25 191.59 576.25 198.1C576.25 204.609 581.527 209.887 588.037 209.887Z" fill="#2A1E98"/>
<path opacity="0.35" d="M509.662 250.574C516.172 250.574 521.449 245.297 521.449 238.787C521.449 232.277 516.172 227 509.662 227C503.152 227 497.875 232.277 497.875 238.787C497.875 245.297 503.152 250.574 509.662 250.574Z" fill="#2A1E98"/>
<path opacity="0.35" d="M549.787 250.574C556.297 250.574 561.574 245.297 561.574 238.787C561.574 232.277 556.297 227 549.787 227C543.277 227 538 232.277 538 238.787C538 245.297 543.277 250.574 549.787 250.574Z" fill="#2A1E98"/>
<path opacity="0.35" d="M589.912 250.574C596.422 250.574 601.699 245.297 601.699 238.787C601.699 232.277 596.422 227 589.912 227C583.402 227 578.125 232.277 578.125 238.787C578.125 245.297 583.402 250.574 589.912 250.574Z" fill="#2A1E98"/>
<path opacity="0.35" d="M509.662 291.816C516.172 291.816 521.449 286.539 521.449 280.029C521.449 273.519 516.172 268.242 509.662 268.242C503.152 268.242 497.875 273.519 497.875 280.029C497.875 286.539 503.152 291.816 509.662 291.816Z" fill="#2A1E98"/>
<path opacity="0.35" d="M549.787 291.816C556.297 291.816 561.574 286.539 561.574 280.029C561.574 273.519 556.297 268.242 549.787 268.242C543.277 268.242 538 273.519 538 280.029C538 286.539 543.277 291.816 549.787 291.816Z" fill="#2A1E98"/>
<path opacity="0.35" d="M589.912 291.816C596.422 291.816 601.699 286.539 601.699 280.029C601.699 273.519 596.422 268.242 589.912 268.242C583.402 268.242 578.125 273.519 578.125 280.029C578.125 286.539 583.402 291.816 589.912 291.816Z" fill="#2A1E98"/>
<path d="M509.662 330.824C516.172 330.824 521.449 325.547 521.449 319.037C521.449 312.527 516.172 307.25 509.662 307.25C503.152 307.25 497.875 312.527 497.875 319.037C497.875 325.547 503.152 330.824 509.662 330.824Z" fill="#2A1E98"/>
<path opacity="0.35" d="M549.787 330.824C556.297 330.824 561.574 325.547 561.574 319.037C561.574 312.527 556.297 307.25 549.787 307.25C543.277 307.25 538 312.527 538 319.037C538 325.547 543.277 330.824 549.787 330.824Z" fill="#2A1E98"/>
<path opacity="0.35" d="M589.912 330.824C596.422 330.824 601.699 325.547 601.699 319.037C601.699 312.527 596.422 307.25 589.912 307.25C583.402 307.25 578.125 312.527 578.125 319.037C578.125 325.547 583.402 330.824 589.912 330.824Z" fill="#2A1E98"/>
<path opacity="0.35" d="M509.662 370.949C516.172 370.949 521.449 365.672 521.449 359.162C521.449 352.652 516.172 347.375 509.662 347.375C503.152 347.375 497.875 352.652 497.875 359.162C497.875 365.672 503.152 370.949 509.662 370.949Z" fill="#2A1E98"/>
<path opacity="0.35" d="M549.787 370.949C556.297 370.949 561.574 365.672 561.574 359.162C561.574 352.652 556.297 347.375 549.787 347.375C543.277 347.375 538 352.652 538 359.162C538 365.672 543.277 370.949 549.787 370.949Z" fill="#2A1E98"/>
<path opacity="0.35" d="M589.912 370.949C596.422 370.949 601.699 365.672 601.699 359.162C601.699 352.652 596.422 347.375 589.912 347.375C583.402 347.375 578.125 352.652 578.125 359.162C578.125 365.672 583.402 370.949 589.912 370.949Z" fill="#2A1E98"/>
<path opacity="0.35" d="M510.771 405.427C515.757 405.427 519.798 401.386 519.798 396.4C519.798 391.415 515.757 387.373 510.771 387.373C505.785 387.373 501.744 391.415 501.744 396.4C501.744 401.386 505.785 405.427 510.771 405.427Z" fill="#2A1E98"/>
<path opacity="0.35" d="M550.896 405.427C555.881 405.427 559.923 401.386 559.923 396.4C559.923 391.415 555.881 387.373 550.896 387.373C545.91 387.373 541.869 391.415 541.869 396.4C541.869 401.386 545.91 405.427 550.896 405.427Z" fill="#2A1E98"/>
<path opacity="0.35" d="M591.021 405.427C596.007 405.427 600.048 401.386 600.048 396.4C600.048 391.415 596.007 387.373 591.021 387.373C586.035 387.373 581.994 391.415 581.994 396.4C581.994 401.386 586.035 405.427 591.021 405.427Z" fill="#2A1E98"/>
<path opacity="0.35" d="M388.494 12.8959C392.055 12.8959 394.942 10.009 394.942 6.44794C394.942 2.88684 392.055 0 388.494 0C384.933 0 382.046 2.88684 382.046 6.44794C382.046 10.009 384.933 12.8959 388.494 12.8959Z" fill="#2A1E98"/>
<path d="M428.679 12.8959C432.24 12.8959 435.127 10.009 435.127 6.44794C435.127 2.88684 432.24 0 428.679 0C425.118 0 422.231 2.88684 422.231 6.44794C422.231 10.009 425.118 12.8959 428.679 12.8959Z" fill="#2A1E98"/>
<path opacity="0.35" d="M388.343 46.9775C393.151 46.9775 397.048 43.0803 397.048 38.2728C397.048 33.4653 393.151 29.5681 388.343 29.5681C383.536 29.5681 379.639 33.4653 379.639 38.2728C379.639 43.0803 383.536 46.9775 388.343 46.9775Z" fill="#2A1E98"/>
<path opacity="0.35" d="M428.468 46.9775C433.276 46.9775 437.173 43.0803 437.173 38.2728C437.173 33.4653 433.276 29.5681 428.468 29.5681C423.661 29.5681 419.764 33.4653 419.764 38.2728C419.764 43.0803 423.661 46.9775 428.468 46.9775Z" fill="#2A1E98"/>
<path opacity="0.35" d="M468.037 50.504C474.547 50.504 479.824 45.2268 479.824 38.7169C479.824 32.2071 474.547 26.9298 468.037 26.9298C461.527 26.9298 456.25 32.2071 456.25 38.7169C456.25 45.2268 461.527 50.504 468.037 50.504Z" fill="#2A1E98"/>
<path opacity="0.35" d="M387.787 87.2783C394.297 87.2783 399.574 82.001 399.574 75.4912C399.574 68.9814 394.297 63.7041 387.787 63.7041C381.277 63.7041 376 68.9814 376 75.4912C376 82.001 381.277 87.2783 387.787 87.2783Z" fill="#2A1E98"/>
<path opacity="0.35" d="M427.912 87.2783C434.422 87.2783 439.699 82.001 439.699 75.4912C439.699 68.9814 434.422 63.7041 427.912 63.7041C421.402 63.7041 416.125 68.9814 416.125 75.4912C416.125 82.001 421.402 87.2783 427.912 87.2783Z" fill="#2A1E98"/>
<path opacity="0.35" d="M468.037 87.2783C474.547 87.2783 479.824 82.001 479.824 75.4912C479.824 68.9814 474.547 63.7041 468.037 63.7041C461.527 63.7041 456.25 68.9814 456.25 75.4912C456.25 82.001 461.527 87.2783 468.037 87.2783Z" fill="#2A1E98"/>
<path opacity="0.35" d="M387.787 128.52C394.297 128.52 399.574 123.243 399.574 116.733C399.574 110.223 394.297 104.946 387.787 104.946C381.277 104.946 376 110.223 376 116.733C376 123.243 381.277 128.52 387.787 128.52Z" fill="#2A1E98"/>
<path opacity="0.35" d="M427.912 128.52C434.422 128.52 439.699 123.243 439.699 116.733C439.699 110.223 434.422 104.946 427.912 104.946C421.402 104.946 416.125 110.223 416.125 116.733C416.125 123.243 421.402 128.52 427.912 128.52Z" fill="#2A1E98"/>
<path opacity="0.35" d="M468.037 128.52C474.547 128.52 479.824 123.243 479.824 116.733C479.824 110.223 474.547 104.946 468.037 104.946C461.527 104.946 456.25 110.223 456.25 116.733C456.25 123.243 461.527 128.52 468.037 128.52Z" fill="#2A1E98"/>
<path d="M387.787 169.762C394.297 169.762 399.574 164.485 399.574 157.975C399.574 151.465 394.297 146.188 387.787 146.188C381.277 146.188 376 151.465 376 157.975C376 164.485 381.277 169.762 387.787 169.762Z" fill="#231E49"/>
<path d="M427.912 169.762C434.422 169.762 439.699 164.485 439.699 157.975C439.699 151.465 434.422 146.188 427.912 146.188C421.402 146.188 416.125 151.465 416.125 157.975C416.125 164.485 421.402 169.762 427.912 169.762Z" fill="#231E49"/>
<path opacity="0.35" d="M468.037 169.762C474.547 169.762 479.824 164.485 479.824 157.975C479.824 151.465 474.547 146.188 468.037 146.188C461.527 146.188 456.25 151.465 456.25 157.975C456.25 164.485 461.527 169.762 468.037 169.762Z" fill="#2A1E98"/>
<path opacity="0.35" d="M387.787 209.887C394.297 209.887 399.574 204.609 399.574 198.1C399.574 191.59 394.297 186.312 387.787 186.312C381.277 186.312 376 191.59 376 198.1C376 204.609 381.277 209.887 387.787 209.887Z" fill="#2A1E98"/>
<path d="M427.912 209.887C434.422 209.887 439.699 204.609 439.699 198.1C439.699 191.59 434.422 186.312 427.912 186.312C421.402 186.312 416.125 191.59 416.125 198.1C416.125 204.609 421.402 209.887 427.912 209.887Z" fill="#2A1E98"/>
<path opacity="0.35" d="M468.037 209.887C474.547 209.887 479.824 204.609 479.824 198.1C479.824 191.59 474.547 186.312 468.037 186.312C461.527 186.312 456.25 191.59 456.25 198.1C456.25 204.609 461.527 209.887 468.037 209.887Z" fill="#2A1E98"/>
<path opacity="0.35" d="M389.662 250.574C396.172 250.574 401.449 245.297 401.449 238.787C401.449 232.277 396.172 227 389.662 227C383.152 227 377.875 232.277 377.875 238.787C377.875 245.297 383.152 250.574 389.662 250.574Z" fill="#2A1E98"/>
<path opacity="0.35" d="M429.787 250.574C436.297 250.574 441.574 245.297 441.574 238.787C441.574 232.277 436.297 227 429.787 227C423.277 227 418 232.277 418 238.787C418 245.297 423.277 250.574 429.787 250.574Z" fill="#2A1E98"/>
<path opacity="0.35" d="M469.912 250.574C476.422 250.574 481.699 245.297 481.699 238.787C481.699 232.277 476.422 227 469.912 227C463.402 227 458.125 232.277 458.125 238.787C458.125 245.297 463.402 250.574 469.912 250.574Z" fill="#2A1E98"/>
<path opacity="0.35" d="M389.662 291.816C396.172 291.816 401.449 286.539 401.449 280.029C401.449 273.519 396.172 268.242 389.662 268.242C383.152 268.242 377.875 273.519 377.875 280.029C377.875 286.539 383.152 291.816 389.662 291.816Z" fill="#2A1E98"/>
<path opacity="0.35" d="M429.787 291.816C436.297 291.816 441.574 286.539 441.574 280.029C441.574 273.519 436.297 268.242 429.787 268.242C423.277 268.242 418 273.519 418 280.029C418 286.539 423.277 291.816 429.787 291.816Z" fill="#2A1E98"/>
<path opacity="0.35" d="M469.912 291.816C476.422 291.816 481.699 286.539 481.699 280.029C481.699 273.519 476.422 268.242 469.912 268.242C463.402 268.242 458.125 273.519 458.125 280.029C458.125 286.539 463.402 291.816 469.912 291.816Z" fill="#2A1E98"/>
<path d="M389.662 330.824C396.172 330.824 401.449 325.547 401.449 319.037C401.449 312.527 396.172 307.25 389.662 307.25C383.152 307.25 377.875 312.527 377.875 319.037C377.875 325.547 383.152 330.824 389.662 330.824Z" fill="#2A1E98"/>
<path opacity="0.35" d="M429.787 330.824C436.297 330.824 441.574 325.547 441.574 319.037C441.574 312.527 436.297 307.25 429.787 307.25C423.277 307.25 418 312.527 418 319.037C418 325.547 423.277 330.824 429.787 330.824Z" fill="#2A1E98"/>
<path opacity="0.35" d="M469.912 330.824C476.422 330.824 481.699 325.547 481.699 319.037C481.699 312.527 476.422 307.25 469.912 307.25C463.402 307.25 458.125 312.527 458.125 319.037C458.125 325.547 463.402 330.824 469.912 330.824Z" fill="#2A1E98"/>
<path opacity="0.35" d="M389.662 370.949C396.172 370.949 401.449 365.672 401.449 359.162C401.449 352.652 396.172 347.375 389.662 347.375C383.152 347.375 377.875 352.652 377.875 359.162C377.875 365.672 383.152 370.949 389.662 370.949Z" fill="#2A1E98"/>
<path opacity="0.35" d="M429.787 370.949C436.297 370.949 441.574 365.672 441.574 359.162C441.574 352.652 436.297 347.375 429.787 347.375C423.277 347.375 418 352.652 418 359.162C418 365.672 423.277 370.949 429.787 370.949Z" fill="#2A1E98"/>
<path opacity="0.35" d="M469.912 370.949C476.422 370.949 481.699 365.672 481.699 359.162C481.699 352.652 476.422 347.375 469.912 347.375C463.402 347.375 458.125 352.652 458.125 359.162C458.125 365.672 463.402 370.949 469.912 370.949Z" fill="#2A1E98"/>
<path opacity="0.35" d="M390.771 405.427C395.757 405.427 399.798 401.386 399.798 396.4C399.798 391.415 395.757 387.373 390.771 387.373C385.785 387.373 381.744 391.415 381.744 396.4C381.744 401.386 385.785 405.427 390.771 405.427Z" fill="#2A1E98"/>
<path opacity="0.35" d="M430.896 405.427C435.881 405.427 439.923 401.386 439.923 396.4C439.923 391.415 435.881 387.373 430.896 387.373C425.91 387.373 421.869 391.415 421.869 396.4C421.869 401.386 425.91 405.427 430.896 405.427Z" fill="#2A1E98"/>
<path opacity="0.35" d="M471.021 405.427C476.007 405.427 480.048 401.386 480.048 396.4C480.048 391.415 476.007 387.373 471.021 387.373C466.035 387.373 461.994 391.415 461.994 396.4C461.994 401.386 466.035 405.427 471.021 405.427Z" fill="#2A1E98"/>
<path opacity="0.35" d="M227.14 436.099C230.345 436.099 232.943 433.501 232.943 430.296C232.943 427.091 230.345 424.493 227.14 424.493C223.935 424.493 221.337 427.091 221.337 430.296C221.337 433.501 223.935 436.099 227.14 436.099Z" fill="#2A1E98"/>
<path opacity="0.35" d="M267.265 436.099C270.47 436.099 273.068 433.501 273.068 430.296C273.068 427.091 270.47 424.493 267.265 424.493C264.06 424.493 261.462 427.091 261.462 430.296C261.462 433.501 264.06 436.099 267.265 436.099Z" fill="#2A1E98"/>
<path d="M307.39 436.099C310.595 436.099 313.193 433.501 313.193 430.296C313.193 427.091 310.595 424.493 307.39 424.493C304.185 424.493 301.587 427.091 301.587 430.296C301.587 433.501 304.185 436.099 307.39 436.099Z" fill="#2A1E98"/>
<path opacity="0.35" d="M347.515 436.099C350.72 436.099 353.318 433.501 353.318 430.296C353.318 427.091 350.72 424.493 347.515 424.493C344.31 424.493 341.712 427.091 341.712 430.296C341.712 433.501 344.31 436.099 347.515 436.099Z" fill="#2A1E98"/>
<path d="M390 440C394.418 440 398 436.418 398 432C398 427.582 394.418 424 390 424C385.582 424 382 427.582 382 432C382 436.418 385.582 440 390 440Z" fill="#2A1E98"/>
<path opacity="0.35" d="M431 445C435.971 445 440 440.971 440 436C440 431.029 435.971 427 431 427C426.029 427 422 431.029 422 436C422 440.971 426.029 445 431 445Z" fill="#2A1E98"/>
<path opacity="0.35" d="M472.029 442.278C477.014 442.278 481.056 438.237 481.056 433.251C481.056 428.266 477.014 424.224 472.029 424.224C467.043 424.224 463.002 428.266 463.002 433.251C463.002 438.237 467.043 442.278 472.029 442.278Z" fill="#2A1E98"/>
<path opacity="0.35" d="M512.154 442.278C517.139 442.278 521.181 438.237 521.181 433.251C521.181 428.266 517.139 424.224 512.154 424.224C507.168 424.224 503.127 428.266 503.127 433.251C503.127 438.237 507.168 442.278 512.154 442.278Z" fill="#2A1E98"/>
<path opacity="0.35" d="M548.111 438.41C551.316 438.41 553.914 435.811 553.914 432.606C553.914 429.401 551.316 426.803 548.111 426.803C544.906 426.803 542.308 429.401 542.308 432.606C542.308 435.811 544.906 438.41 548.111 438.41Z" fill="#2A1E98"/>
<path opacity="0.35" d="M583.768 438.41C586.973 438.41 589.571 435.811 589.571 432.606C589.571 429.401 586.973 426.803 583.768 426.803C580.563 426.803 577.965 429.401 577.965 432.606C577.965 435.811 580.563 438.41 583.768 438.41Z" fill="#2A1E98"/>
<path opacity="0.35" d="M390 477C392.761 477 395 474.761 395 472C395 469.239 392.761 467 390 467C387.239 467 385 469.239 385 472C385 474.761 387.239 477 390 477Z" fill="#2A1E98"/>
<path opacity="0.35" d="M432 478C434.761 478 437 475.761 437 473C437 470.239 434.761 468 432 468C429.239 468 427 470.239 427 473C427 475.761 429.239 478 432 478Z" fill="#2A1E98"/>
<path d="M470.094 478.534C473.299 478.534 475.898 475.936 475.898 472.731C475.898 469.526 473.299 466.928 470.094 466.928C466.889 466.928 464.291 469.526 464.291 472.731C464.291 475.936 466.889 478.534 470.094 478.534Z" fill="#2A1E98"/>
<path d="M270.688 329.542C269.579 329.542 268.565 329.222 267.648 328.582C266.752 327.964 266.037 327.068 265.504 325.894C264.971 324.7 264.704 323.27 264.704 321.606C264.704 319.964 264.96 318.3 265.472 316.614C265.984 314.929 266.677 313.318 267.552 311.782C268.448 310.246 269.461 308.881 270.592 307.686C271.723 306.47 272.907 305.51 274.144 304.806C275.403 304.102 276.64 303.75 277.856 303.75C278.667 303.75 279.317 303.921 279.808 304.262C280.299 304.604 280.651 305.052 280.864 305.606C281.077 306.14 281.184 306.726 281.184 307.366C281.184 308.113 281.056 308.849 280.8 309.574C280.544 310.278 280.203 310.865 279.776 311.334C279.349 311.804 278.88 312.038 278.368 312.038C278.197 312.038 278.016 311.985 277.824 311.878C277.653 311.772 277.504 311.58 277.376 311.302C277.675 311.089 278.016 310.705 278.4 310.15C278.805 309.596 279.147 308.977 279.424 308.294C279.723 307.612 279.872 306.982 279.872 306.406C279.872 305.916 279.723 305.51 279.424 305.19C279.147 304.87 278.656 304.71 277.952 304.71C277.035 304.71 276.075 305.084 275.072 305.83C274.091 306.577 273.131 307.58 272.192 308.838C271.275 310.076 270.443 311.462 269.696 312.998C268.949 314.534 268.352 316.102 267.904 317.702C267.477 319.302 267.264 320.817 267.264 322.246C267.264 324.188 267.669 325.702 268.48 326.79C269.291 327.9 270.315 328.454 271.552 328.454C272.384 328.454 273.173 328.145 273.92 327.526C274.667 326.929 275.328 326.15 275.904 325.19C276.48 324.209 276.939 323.153 277.28 322.022C277.643 320.892 277.867 319.804 277.952 318.758C277.163 318.588 276.523 318.481 276.032 318.438C275.541 318.374 275.083 318.342 274.656 318.342C274.379 318.342 274.08 318.353 273.76 318.374C273.461 318.374 273.109 318.374 272.704 318.374C272.853 317.756 273.109 317.329 273.472 317.094C273.856 316.838 274.325 316.71 274.88 316.71C275.477 316.71 276.096 316.817 276.736 317.03C277.397 317.222 278.037 317.436 278.656 317.67C279.275 317.905 279.819 318.086 280.288 318.214L280.064 319.238C279.659 320.305 279.328 321.244 279.072 322.054C278.816 322.844 278.613 323.548 278.464 324.166C278.336 324.764 278.24 325.297 278.176 325.766C278.133 326.236 278.112 326.662 278.112 327.046C278.112 327.473 278.123 327.889 278.144 328.294C278.187 328.7 278.219 329.116 278.24 329.542C277.899 329.393 277.589 329.212 277.312 328.998C277.056 328.806 276.853 328.561 276.704 328.262C276.576 327.964 276.512 327.622 276.512 327.238C276.512 327.004 276.523 326.769 276.544 326.534C276.587 326.3 276.651 326.044 276.736 325.766C275.968 326.833 275.083 327.729 274.08 328.454C273.077 329.18 271.947 329.542 270.688 329.542ZM284.375 327.718C283.457 327.718 282.796 327.398 282.391 326.758C282.007 326.14 281.815 325.361 281.815 324.422C281.815 323.398 282.007 322.182 282.391 320.774C282.775 319.366 283.276 317.884 283.895 316.326C284.535 314.769 285.228 313.254 285.975 311.782C286.721 310.289 287.468 308.934 288.215 307.718C288.961 306.502 289.644 305.532 290.263 304.806C290.903 304.081 291.404 303.718 291.767 303.718C292.001 303.718 292.193 303.857 292.343 304.134C292.492 304.39 292.609 304.71 292.695 305.094C292.78 305.457 292.823 305.788 292.823 306.086C292.823 306.662 292.673 307.42 292.375 308.358C292.097 309.276 291.692 310.31 291.159 311.462C290.647 312.593 290.028 313.745 289.303 314.918C288.599 316.07 287.82 317.18 286.967 318.246C286.135 319.313 285.249 320.23 284.311 320.998C284.183 321.574 284.076 322.14 283.991 322.694C283.927 323.228 283.895 323.74 283.895 324.23C283.895 325.062 284.012 325.681 284.247 326.086C284.481 326.492 284.833 326.694 285.303 326.694C285.879 326.694 286.444 326.438 286.999 325.926C287.575 325.414 288.108 324.774 288.599 324.006C289.111 323.217 289.548 322.406 289.911 321.574L290.391 321.83C289.537 323.644 288.609 325.084 287.607 326.15C286.604 327.196 285.527 327.718 284.375 327.718ZM284.599 319.91C285.345 319.164 286.071 318.31 286.775 317.35C287.479 316.369 288.129 315.356 288.727 314.31C289.345 313.265 289.889 312.252 290.359 311.27C290.828 310.289 291.191 309.414 291.447 308.646C291.703 307.857 291.831 307.249 291.831 306.822C291.831 306.609 291.799 306.47 291.735 306.406C291.692 306.342 291.649 306.31 291.607 306.31C291.436 306.31 291.137 306.588 290.711 307.142C290.305 307.676 289.825 308.401 289.271 309.318C288.716 310.236 288.151 311.281 287.575 312.454C286.999 313.628 286.444 314.854 285.911 316.134C285.399 317.414 284.961 318.673 284.599 319.91ZM291.489 327.782C290.572 327.782 289.921 327.494 289.537 326.918C289.153 326.364 288.961 325.681 288.961 324.87C288.961 324.209 289.068 323.526 289.281 322.822C289.495 322.118 289.772 321.457 290.113 320.838C290.476 320.22 290.871 319.718 291.297 319.334C291.745 318.95 292.193 318.758 292.641 318.758C292.748 318.758 292.855 318.78 292.961 318.822C293.089 318.844 293.207 318.876 293.313 318.918C293.121 319.089 292.887 319.409 292.609 319.878C292.353 320.326 292.108 320.849 291.873 321.446C291.639 322.022 291.436 322.598 291.265 323.174C291.116 323.75 291.041 324.241 291.041 324.646C291.041 325.286 291.148 325.756 291.361 326.054C291.575 326.332 291.852 326.47 292.193 326.47C292.641 326.47 293.175 326.236 293.793 325.766C294.412 325.276 295.02 324.657 295.617 323.91C295.02 323.42 294.551 322.78 294.209 321.99C293.889 321.18 293.729 320.358 293.729 319.526C293.729 318.822 293.847 318.161 294.081 317.542C294.337 316.924 294.7 316.433 295.169 316.07C295.639 315.686 296.204 315.494 296.865 315.494C297.74 315.494 298.327 315.729 298.625 316.198C298.924 316.668 299.073 317.254 299.073 317.958C299.073 318.79 298.871 319.718 298.465 320.742C298.06 321.745 297.548 322.716 296.929 323.654C297.313 323.868 297.719 323.974 298.145 323.974C298.487 323.974 298.871 323.91 299.297 323.782C299.724 323.633 300.14 323.388 300.545 323.046C300.972 322.705 301.313 322.246 301.569 321.67L301.953 321.99C301.527 322.993 300.919 323.708 300.129 324.134C299.361 324.54 298.625 324.742 297.921 324.742C297.644 324.742 297.377 324.721 297.121 324.678C296.865 324.614 296.62 324.529 296.385 324.422C295.66 325.382 294.86 326.182 293.985 326.822C293.132 327.462 292.3 327.782 291.489 327.782ZM296.193 323.078C296.727 322.289 297.164 321.468 297.505 320.614C297.868 319.74 298.049 318.918 298.049 318.15C298.049 317.532 297.953 317.084 297.761 316.806C297.591 316.508 297.367 316.358 297.089 316.358C296.663 316.358 296.225 316.668 295.777 317.286C295.329 317.905 295.105 318.684 295.105 319.622C295.105 320.241 295.191 320.87 295.361 321.51C295.553 322.129 295.831 322.652 296.193 323.078ZM303.945 329.094C302.835 329.094 302.003 328.732 301.449 328.006C300.915 327.281 300.649 326.3 300.649 325.062C300.649 323.996 300.83 322.737 301.193 321.286C301.555 319.836 302.035 318.321 302.633 316.742C303.23 315.142 303.891 313.585 304.617 312.07C305.363 310.556 306.11 309.19 306.857 307.974C307.603 306.737 308.307 305.756 308.969 305.03C309.63 304.284 310.174 303.91 310.601 303.91C310.963 303.91 311.219 304.134 311.369 304.582C311.539 305.03 311.625 305.478 311.625 305.926C311.625 306.524 311.497 307.249 311.241 308.102C310.985 308.956 310.622 309.873 310.153 310.854C309.683 311.814 309.139 312.764 308.521 313.702C307.902 314.641 307.23 315.505 306.505 316.294C305.801 317.062 305.075 317.67 304.329 318.118C304.201 318.353 304.009 318.844 303.753 319.59C303.518 320.316 303.294 321.158 303.081 322.118C302.889 323.057 302.793 323.974 302.793 324.87C302.793 325.745 302.921 326.46 303.177 327.014C303.454 327.59 303.913 327.878 304.553 327.878C305.171 327.878 305.811 327.622 306.473 327.11C307.134 326.62 307.667 325.98 308.073 325.19C307.283 324.785 306.697 324.198 306.313 323.43C305.929 322.641 305.737 321.852 305.737 321.062C305.737 320.038 306.003 319.217 306.537 318.598C307.07 317.98 307.699 317.67 308.425 317.67C309.043 317.67 309.534 317.926 309.897 318.438C310.259 318.929 310.441 319.654 310.441 320.614C310.441 321.318 310.345 322.044 310.153 322.79C309.961 323.537 309.683 324.262 309.321 324.966C309.449 324.988 309.577 325.009 309.705 325.03C309.854 325.052 310.003 325.062 310.153 325.062C310.921 325.062 311.561 324.881 312.073 324.518C312.585 324.134 313.011 323.676 313.353 323.142C313.715 322.588 314.014 322.065 314.249 321.574L314.633 321.99C314.035 323.462 313.321 324.444 312.489 324.934C311.678 325.404 310.867 325.638 310.057 325.638C309.886 325.638 309.715 325.628 309.545 325.606C309.374 325.585 309.203 325.564 309.033 325.542C308.457 326.524 307.742 327.356 306.889 328.038C306.057 328.742 305.075 329.094 303.945 329.094ZM308.393 324.55C308.627 324.06 308.809 323.548 308.937 323.014C309.065 322.46 309.129 321.894 309.129 321.318C309.129 320.572 309.022 319.985 308.809 319.558C308.617 319.132 308.371 318.918 308.073 318.918C307.753 318.918 307.465 319.142 307.209 319.59C306.974 320.017 306.857 320.561 306.857 321.222C306.857 321.798 306.974 322.406 307.209 323.046C307.443 323.686 307.838 324.188 308.393 324.55ZM304.681 316.87C305.278 316.401 305.854 315.804 306.409 315.078C306.985 314.353 307.518 313.585 308.009 312.774C308.499 311.942 308.937 311.132 309.321 310.342C309.705 309.553 310.003 308.838 310.217 308.198C310.43 307.558 310.537 307.078 310.537 306.758C310.537 306.652 310.526 306.588 310.505 306.566C310.483 306.524 310.451 306.502 310.409 306.502C310.238 306.502 309.907 306.812 309.417 307.43C308.947 308.028 308.414 308.838 307.817 309.862C307.241 310.865 306.665 311.985 306.089 313.222C305.513 314.438 305.043 315.654 304.681 316.87ZM315.099 328.262C314.437 328.262 313.883 328.038 313.434 327.59C312.965 327.164 312.73 326.502 312.73 325.606C312.73 324.838 312.901 324.017 313.242 323.142C313.584 322.246 314.053 321.372 314.651 320.518C315.248 319.644 315.92 318.854 316.667 318.15C317.435 317.425 318.235 316.849 319.067 316.422C319.92 315.996 320.763 315.782 321.595 315.782C322.427 315.782 323.12 316.006 323.675 316.454C324.229 316.881 324.507 317.457 324.507 318.182C324.507 318.716 324.357 319.078 324.059 319.27C323.781 319.462 323.408 319.558 322.939 319.558C322.981 319.388 323.013 319.206 323.035 319.014C323.077 318.801 323.099 318.609 323.099 318.438C323.099 317.948 322.981 317.532 322.747 317.19C322.512 316.828 322.107 316.646 321.531 316.646C320.933 316.646 320.325 316.86 319.707 317.286C319.088 317.692 318.491 318.246 317.915 318.95C317.339 319.633 316.827 320.38 316.379 321.19C315.931 322.001 315.579 322.801 315.323 323.59C315.067 324.38 314.939 325.084 314.939 325.702C314.939 326.534 315.227 326.95 315.803 326.95C316.293 326.95 316.827 326.726 317.403 326.278C317.979 325.809 318.565 325.222 319.163 324.518C319.781 323.793 320.368 323.046 320.923 322.278C321.477 321.51 321.968 320.806 322.395 320.166C322.48 320.038 322.533 319.974 322.555 319.974C322.683 319.996 322.843 320.038 323.035 320.102C323.248 320.166 323.429 320.252 323.579 320.358C323.728 320.465 323.803 320.604 323.803 320.774C323.803 320.966 323.707 321.233 323.515 321.574C323.323 321.894 323.109 322.268 322.875 322.694C322.64 323.121 322.427 323.558 322.235 324.006C322.043 324.433 321.947 324.838 321.947 325.222C321.947 325.542 322.032 325.862 322.203 326.182C322.373 326.481 322.651 326.63 323.035 326.63C323.611 326.63 324.368 326.214 325.307 325.382C326.245 324.529 327.195 323.26 328.155 321.574L328.475 321.894C328.027 323.046 327.451 324.06 326.747 324.934C326.043 325.809 325.285 326.492 324.475 326.982C323.685 327.473 322.907 327.718 322.139 327.718C321.349 327.718 320.763 327.484 320.379 327.014C320.016 326.545 319.835 326.033 319.835 325.478C319.835 325.35 319.845 325.212 319.867 325.062C319.888 324.892 319.909 324.721 319.931 324.55C319.013 325.788 318.171 326.716 317.403 327.334C316.656 327.953 315.888 328.262 315.099 328.262ZM330.156 327.718C329.239 327.718 328.577 327.398 328.172 326.758C327.788 326.14 327.596 325.361 327.596 324.422C327.596 323.398 327.788 322.182 328.172 320.774C328.556 319.366 329.057 317.884 329.676 316.326C330.316 314.769 331.009 313.254 331.756 311.782C332.503 310.289 333.249 308.934 333.996 307.718C334.743 306.502 335.425 305.532 336.044 304.806C336.684 304.081 337.185 303.718 337.548 303.718C337.783 303.718 337.975 303.857 338.124 304.134C338.273 304.39 338.391 304.71 338.476 305.094C338.561 305.457 338.604 305.788 338.604 306.086C338.604 306.662 338.455 307.42 338.156 308.358C337.879 309.276 337.473 310.31 336.94 311.462C336.428 312.593 335.809 313.745 335.084 314.918C334.38 316.07 333.601 317.18 332.748 318.246C331.916 319.313 331.031 320.23 330.092 320.998C329.964 321.574 329.857 322.14 329.772 322.694C329.708 323.228 329.676 323.74 329.676 324.23C329.676 325.062 329.793 325.681 330.028 326.086C330.263 326.492 330.615 326.694 331.084 326.694C331.66 326.694 332.225 326.438 332.78 325.926C333.356 325.414 333.889 324.774 334.38 324.006C334.892 323.217 335.329 322.406 335.692 321.574L336.172 321.83C335.319 323.644 334.391 325.084 333.388 326.15C332.385 327.196 331.308 327.718 330.156 327.718ZM330.38 319.91C331.127 319.164 331.852 318.31 332.556 317.35C333.26 316.369 333.911 315.356 334.508 314.31C335.127 313.265 335.671 312.252 336.14 311.27C336.609 310.289 336.972 309.414 337.228 308.646C337.484 307.857 337.612 307.249 337.612 306.822C337.612 306.609 337.58 306.47 337.516 306.406C337.473 306.342 337.431 306.31 337.388 306.31C337.217 306.31 336.919 306.588 336.492 307.142C336.087 307.676 335.607 308.401 335.052 309.318C334.497 310.236 333.932 311.281 333.356 312.454C332.78 313.628 332.225 314.854 331.692 316.134C331.18 317.414 330.743 318.673 330.38 319.91ZM349.871 329.542C348.719 329.542 347.631 329.329 346.607 328.902C345.583 328.497 344.751 327.868 344.111 327.014C343.492 326.161 343.183 325.094 343.183 323.814C343.183 322.705 343.396 321.841 343.823 321.222C344.271 320.604 344.815 320.166 345.455 319.91C346.095 319.654 346.703 319.526 347.279 319.526C346.703 320.145 346.266 320.828 345.967 321.574C345.668 322.321 345.519 323.068 345.519 323.814C345.519 324.604 345.69 325.34 346.031 326.022C346.394 326.705 346.938 327.249 347.663 327.654C348.388 328.081 349.306 328.294 350.415 328.294C351.375 328.294 352.314 328.113 353.231 327.75C354.148 327.409 354.895 326.897 355.471 326.214C356.068 325.51 356.367 324.646 356.367 323.622C356.367 322.705 356.132 321.916 355.663 321.254C355.194 320.593 354.586 320.006 353.839 319.494C353.114 318.982 352.335 318.492 351.503 318.022C350.671 317.553 349.882 317.062 349.135 316.55C348.41 316.017 347.812 315.409 347.343 314.726C346.874 314.044 346.639 313.222 346.639 312.262C346.639 311.366 346.852 310.428 347.279 309.446C347.706 308.465 348.314 307.537 349.103 306.662C349.914 305.788 350.874 305.084 351.983 304.55C353.114 303.996 354.372 303.718 355.759 303.718C357.018 303.718 357.892 304.028 358.383 304.646C358.874 305.244 359.119 306.001 359.119 306.918C359.119 307.686 358.98 308.518 358.703 309.414C358.447 310.289 358.127 311.132 357.743 311.942C357.359 312.732 356.996 313.404 356.655 313.958C356.271 313.873 355.994 313.713 355.823 313.478C355.674 313.222 355.599 312.924 355.599 312.582C355.599 312.134 355.695 311.622 355.887 311.046C356.079 310.47 356.292 309.873 356.527 309.254C356.783 308.636 357.007 308.038 357.199 307.462C357.391 306.865 357.487 306.332 357.487 305.862C357.487 305.436 357.359 305.105 357.103 304.87C356.847 304.614 356.378 304.486 355.695 304.486C354.692 304.486 353.764 304.721 352.911 305.19C352.058 305.66 351.311 306.268 350.671 307.014C350.031 307.74 349.53 308.508 349.167 309.318C348.826 310.129 348.655 310.865 348.655 311.526C348.655 312.316 348.879 312.998 349.327 313.574C349.796 314.129 350.394 314.641 351.119 315.11C351.844 315.558 352.612 316.017 353.423 316.486C354.255 316.934 355.034 317.436 355.759 317.99C356.484 318.545 357.071 319.206 357.519 319.974C357.988 320.721 358.223 321.638 358.223 322.726C358.223 323.836 357.978 324.817 357.487 325.67C356.996 326.502 356.335 327.206 355.503 327.782C354.692 328.358 353.796 328.796 352.815 329.094C351.834 329.393 350.852 329.542 349.871 329.542ZM362.739 327.782C361.822 327.782 361.171 327.494 360.787 326.918C360.403 326.364 360.211 325.681 360.211 324.87C360.211 324.209 360.318 323.526 360.531 322.822C360.745 322.118 361.022 321.457 361.363 320.838C361.726 320.22 362.121 319.718 362.547 319.334C362.995 318.95 363.443 318.758 363.891 318.758C363.998 318.758 364.105 318.78 364.211 318.822C364.339 318.844 364.457 318.876 364.563 318.918C364.371 319.089 364.137 319.409 363.859 319.878C363.603 320.326 363.358 320.849 363.123 321.446C362.889 322.022 362.686 322.598 362.515 323.174C362.366 323.75 362.291 324.241 362.291 324.646C362.291 325.286 362.398 325.756 362.611 326.054C362.825 326.332 363.102 326.47 363.443 326.47C363.891 326.47 364.425 326.236 365.043 325.766C365.662 325.276 366.27 324.657 366.867 323.91C366.27 323.42 365.801 322.78 365.459 321.99C365.139 321.18 364.979 320.358 364.979 319.526C364.979 318.822 365.097 318.161 365.331 317.542C365.587 316.924 365.95 316.433 366.419 316.07C366.889 315.686 367.454 315.494 368.115 315.494C368.99 315.494 369.577 315.729 369.875 316.198C370.174 316.668 370.323 317.254 370.323 317.958C370.323 318.79 370.121 319.718 369.715 320.742C369.31 321.745 368.798 322.716 368.179 323.654C368.563 323.868 368.969 323.974 369.395 323.974C369.737 323.974 370.121 323.91 370.547 323.782C370.974 323.633 371.39 323.388 371.795 323.046C372.222 322.705 372.563 322.246 372.819 321.67L373.203 321.99C372.777 322.993 372.169 323.708 371.379 324.134C370.611 324.54 369.875 324.742 369.171 324.742C368.894 324.742 368.627 324.721 368.371 324.678C368.115 324.614 367.87 324.529 367.635 324.422C366.91 325.382 366.11 326.182 365.235 326.822C364.382 327.462 363.55 327.782 362.739 327.782ZM367.443 323.078C367.977 322.289 368.414 321.468 368.755 320.614C369.118 319.74 369.299 318.918 369.299 318.15C369.299 317.532 369.203 317.084 369.011 316.806C368.841 316.508 368.617 316.358 368.339 316.358C367.913 316.358 367.475 316.668 367.027 317.286C366.579 317.905 366.355 318.684 366.355 319.622C366.355 320.241 366.441 320.87 366.611 321.51C366.803 322.129 367.081 322.652 367.443 323.078ZM371.803 335.718C371.589 335.718 371.344 335.644 371.067 335.494C370.789 335.366 370.555 335.1 370.363 334.694C370.149 334.289 370.043 333.692 370.043 332.902C370.043 331.964 370.203 330.737 370.523 329.222C370.843 327.729 371.28 326.076 371.835 324.262C372.389 322.449 373.029 320.593 373.755 318.694C374.48 316.774 375.259 314.929 376.091 313.158C376.944 311.366 377.808 309.766 378.683 308.358C379.579 306.929 380.453 305.798 381.307 304.966C382.16 304.134 382.971 303.718 383.739 303.718C384.187 303.718 384.475 303.857 384.603 304.134C384.752 304.412 384.827 304.742 384.827 305.126C384.827 306.044 384.571 307.046 384.059 308.134C383.568 309.222 382.907 310.321 382.075 311.43C381.243 312.518 380.325 313.564 379.323 314.566C378.32 315.548 377.307 316.39 376.283 317.094C376.176 317.35 376.069 317.617 375.963 317.894C375.877 318.15 375.781 318.417 375.675 318.694C375.909 318.737 376.091 318.865 376.219 319.078C376.368 319.27 376.453 319.484 376.475 319.718C376.624 320.678 376.784 321.542 376.955 322.31C377.125 323.057 377.381 323.644 377.723 324.07C378.085 324.497 378.597 324.71 379.259 324.71C380.005 324.71 380.635 324.444 381.147 323.91C381.659 323.356 382.213 322.577 382.811 321.574L383.291 321.894C382.757 323.174 382.075 324.102 381.243 324.678C380.432 325.254 379.717 325.542 379.099 325.542C378.715 325.542 378.309 325.446 377.883 325.254C377.477 325.062 377.093 324.806 376.731 324.486C376.731 325.83 376.581 327.164 376.283 328.486C376.005 329.809 375.632 331.014 375.163 332.102C374.693 333.19 374.171 334.065 373.595 334.726C373.019 335.388 372.421 335.718 371.803 335.718ZM372.635 334.182C372.869 334.182 373.136 333.969 373.435 333.542C373.733 333.116 374.021 332.55 374.299 331.846C374.597 331.164 374.864 330.406 375.099 329.574C375.333 328.742 375.525 327.91 375.675 327.078C375.824 326.246 375.899 325.5 375.899 324.838C375.899 324.177 375.813 323.58 375.643 323.046C375.472 322.492 375.195 321.841 374.811 321.094C374.277 322.694 373.797 324.241 373.371 325.734C372.944 327.228 372.613 328.572 372.379 329.766C372.144 330.961 372.027 331.921 372.027 332.646C372.027 333.67 372.229 334.182 372.635 334.182ZM376.795 315.782C378.181 314.502 379.376 313.222 380.379 311.942C381.403 310.641 382.192 309.489 382.747 308.486C383.301 307.462 383.579 306.737 383.579 306.31C383.579 306.012 383.429 305.862 383.131 305.862C382.576 305.862 381.947 306.321 381.243 307.238C380.539 308.134 379.803 309.329 379.035 310.822C378.267 312.316 377.52 313.969 376.795 315.782ZM384.908 328.23C383.99 328.23 383.286 327.964 382.796 327.43C382.305 326.897 382.059 326.108 382.059 325.062C382.059 324.124 382.23 322.972 382.572 321.606C382.934 320.22 383.382 318.801 383.916 317.35C383.702 317.308 383.5 317.276 383.308 317.254C383.116 317.212 382.934 317.158 382.764 317.094V316.518C382.934 316.54 383.137 316.561 383.372 316.582C383.606 316.604 383.873 316.625 384.172 316.646C384.62 315.494 385.1 314.385 385.612 313.318C386.124 312.23 386.625 311.27 387.116 310.438C387.628 309.585 388.108 308.913 388.556 308.422C389.025 307.91 389.42 307.654 389.74 307.654C389.91 307.654 390.06 307.718 390.188 307.846C390.337 307.953 390.411 308.124 390.411 308.358C390.411 308.721 390.188 309.318 389.74 310.15C389.292 310.961 388.737 311.932 388.076 313.062C387.414 314.193 386.774 315.42 386.156 316.742C386.348 316.742 386.54 316.742 386.732 316.742C386.945 316.742 387.148 316.742 387.34 316.742C388.044 316.742 388.78 316.732 389.548 316.71C390.337 316.689 391.126 316.636 391.916 316.55V317.126C390.742 317.254 389.686 317.35 388.748 317.414C387.83 317.478 387.009 317.51 386.284 317.51C386.198 317.51 386.113 317.51 386.028 317.51C385.964 317.51 385.889 317.51 385.804 317.51C385.313 318.641 384.897 319.804 384.556 320.998C384.214 322.193 384.044 323.356 384.044 324.486C384.044 325.404 384.182 326.065 384.46 326.47C384.737 326.854 385.196 327.046 385.836 327.046C386.945 327.046 388.033 326.556 389.1 325.574C390.166 324.593 391.105 323.26 391.916 321.574L392.332 321.894C391.82 323.089 391.169 324.166 390.38 325.126C389.612 326.086 388.758 326.844 387.82 327.398C386.881 327.953 385.91 328.23 384.908 328.23ZM400.337 328.006C399.675 328.006 399.217 327.697 398.961 327.078C398.726 326.481 398.609 325.756 398.609 324.902C398.609 324.476 398.63 324.017 398.673 323.526C398.715 323.014 398.769 322.513 398.833 322.022C398.363 322.961 397.851 323.868 397.297 324.742C396.763 325.617 396.198 326.332 395.601 326.886C395.003 327.441 394.374 327.718 393.713 327.718C393.009 327.718 392.433 327.398 391.985 326.758C391.537 326.118 391.312 325.361 391.312 324.486C391.312 323.868 391.409 323.153 391.601 322.342C391.814 321.532 392.07 320.732 392.368 319.942C392.667 319.153 392.977 318.502 393.297 317.99C393.617 317.478 393.894 317.222 394.129 317.222C394.235 317.222 394.459 317.286 394.801 317.414C395.142 317.521 395.312 317.67 395.312 317.862C395.078 318.225 394.79 318.78 394.449 319.526C394.107 320.273 393.809 321.084 393.553 321.958C393.297 322.812 393.169 323.59 393.169 324.294C393.169 324.465 393.19 324.732 393.233 325.094C393.275 325.436 393.371 325.745 393.521 326.022C393.691 326.3 393.947 326.438 394.289 326.438C394.779 326.438 395.302 326.129 395.857 325.51C396.411 324.892 396.966 324.113 397.521 323.174C398.075 322.236 398.598 321.286 399.089 320.326C399.259 319.452 399.398 318.812 399.505 318.406C399.633 318.001 399.761 317.745 399.889 317.638C400.017 317.51 400.177 317.446 400.369 317.446C400.646 317.446 400.87 317.51 401.041 317.638C401.211 317.745 401.297 317.916 401.297 318.15C401.297 318.193 401.286 318.246 401.265 318.31C401.265 318.374 401.254 318.438 401.233 318.502C401.083 319.014 400.934 319.665 400.785 320.454C400.657 321.222 400.55 322.022 400.465 322.854C400.379 323.686 400.337 324.465 400.337 325.19C400.337 325.681 400.39 326.065 400.497 326.342C400.603 326.62 400.785 326.758 401.041 326.758C401.361 326.758 401.734 326.566 402.161 326.182C402.587 325.777 403.025 325.254 403.473 324.614C403.942 323.953 404.39 323.238 404.817 322.47C405.265 321.702 405.659 320.945 406.001 320.198C406.001 319.089 406.075 318.246 406.225 317.67C406.395 317.073 406.598 316.668 406.833 316.454C407.089 316.241 407.345 316.134 407.601 316.134C408.006 316.134 408.294 316.284 408.465 316.582C408.657 316.86 408.753 317.116 408.753 317.35C408.753 317.5 408.721 317.66 408.657 317.83C408.593 317.98 408.507 318.15 408.401 318.342C408.23 318.662 408.059 319.078 407.889 319.59C407.718 320.081 407.633 320.764 407.633 321.638C407.633 321.98 407.665 322.342 407.729 322.726C407.793 323.11 407.931 323.43 408.145 323.686C408.358 323.942 408.689 324.07 409.137 324.07C409.585 324.07 410.011 323.9 410.417 323.558C410.843 323.196 411.259 322.577 411.665 321.702L412.081 322.022C411.611 323.089 411.089 323.804 410.513 324.166C409.958 324.529 409.425 324.71 408.913 324.71C408.251 324.71 407.686 324.486 407.217 324.038C406.769 323.59 406.438 322.918 406.225 322.022C405.691 323.004 405.094 323.953 404.433 324.87C403.771 325.788 403.089 326.534 402.385 327.11C401.681 327.708 400.998 328.006 400.337 328.006ZM412.599 328.262C411.937 328.262 411.383 328.038 410.934 327.59C410.465 327.164 410.23 326.502 410.23 325.606C410.23 324.838 410.401 324.017 410.742 323.142C411.084 322.246 411.553 321.372 412.151 320.518C412.748 319.644 413.42 318.854 414.167 318.15C414.935 317.425 415.735 316.849 416.567 316.422C417.42 315.996 418.263 315.782 419.095 315.782C419.927 315.782 420.62 316.006 421.175 316.454C421.729 316.881 422.007 317.457 422.007 318.182C422.007 318.716 421.857 319.078 421.559 319.27C421.281 319.462 420.908 319.558 420.439 319.558C420.481 319.388 420.513 319.206 420.535 319.014C420.577 318.801 420.599 318.609 420.599 318.438C420.599 317.948 420.481 317.532 420.247 317.19C420.012 316.828 419.607 316.646 419.031 316.646C418.433 316.646 417.825 316.86 417.207 317.286C416.588 317.692 415.991 318.246 415.415 318.95C414.839 319.633 414.327 320.38 413.879 321.19C413.431 322.001 413.079 322.801 412.823 323.59C412.567 324.38 412.439 325.084 412.439 325.702C412.439 326.534 412.727 326.95 413.303 326.95C413.793 326.95 414.327 326.726 414.903 326.278C415.479 325.809 416.065 325.222 416.663 324.518C417.281 323.793 417.868 323.046 418.423 322.278C418.977 321.51 419.468 320.806 419.895 320.166C419.98 320.038 420.033 319.974 420.055 319.974C420.183 319.996 420.343 320.038 420.535 320.102C420.748 320.166 420.929 320.252 421.079 320.358C421.228 320.465 421.303 320.604 421.303 320.774C421.303 320.966 421.207 321.233 421.015 321.574C420.823 321.894 420.609 322.268 420.375 322.694C420.14 323.121 419.927 323.558 419.735 324.006C419.543 324.433 419.447 324.838 419.447 325.222C419.447 325.542 419.532 325.862 419.703 326.182C419.873 326.481 420.151 326.63 420.535 326.63C421.111 326.63 421.868 326.214 422.807 325.382C423.745 324.529 424.695 323.26 425.655 321.574L425.975 321.894C425.527 323.046 424.951 324.06 424.247 324.934C423.543 325.809 422.785 326.492 421.975 326.982C421.185 327.473 420.407 327.718 419.639 327.718C418.849 327.718 418.263 327.484 417.879 327.014C417.516 326.545 417.335 326.033 417.335 325.478C417.335 325.35 417.345 325.212 417.367 325.062C417.388 324.892 417.409 324.721 417.431 324.55C416.513 325.788 415.671 326.716 414.903 327.334C414.156 327.953 413.388 328.262 412.599 328.262ZM430.536 327.59C429.811 327.59 429.235 327.398 428.808 327.014C428.403 326.63 428.2 326.129 428.2 325.51C428.2 324.87 428.349 324.198 428.648 323.494C428.947 322.79 429.235 322.097 429.512 321.414C429.811 320.71 429.96 320.081 429.96 319.526C429.96 318.844 429.757 318.342 429.352 318.022C428.968 317.681 428.573 317.372 428.168 317.094C427.677 318.353 427.165 319.548 426.632 320.678C426.099 321.809 425.661 322.662 425.32 323.238L425.032 322.694C425.331 322.14 425.715 321.329 426.184 320.262C426.675 319.196 427.155 317.98 427.624 316.614C427.411 316.401 427.304 316.145 427.304 315.846C427.304 315.206 427.485 314.684 427.848 314.278C428.211 313.873 428.477 313.67 428.648 313.67C428.883 313.67 429.011 313.777 429.032 313.99C429.075 314.182 429.096 314.332 429.096 314.438C429.096 314.545 429.032 314.758 428.904 315.078C428.797 315.377 428.744 315.558 428.744 315.622C428.744 315.921 428.904 316.198 429.224 316.454C429.565 316.689 429.949 316.966 430.376 317.286C430.803 317.585 431.176 317.958 431.496 318.406C431.837 318.833 432.008 319.388 432.008 320.07C432.008 320.71 431.869 321.361 431.592 322.022C431.336 322.684 431.069 323.313 430.792 323.91C430.536 324.508 430.408 325.03 430.408 325.478C430.408 325.862 430.504 326.118 430.696 326.246C430.888 326.374 431.112 326.438 431.368 326.438C431.88 326.438 432.403 326.278 432.936 325.958C433.491 325.638 434.024 325.233 434.536 324.742C435.048 324.252 435.507 323.74 435.912 323.206C436.317 322.652 436.616 322.14 436.808 321.67L437.224 321.99C436.819 322.886 436.264 323.772 435.56 324.646C434.856 325.5 434.067 326.204 433.192 326.758C432.339 327.313 431.453 327.59 430.536 327.59ZM439.581 328.166C438.28 328.166 437.298 327.804 436.637 327.078C435.997 326.374 435.677 325.5 435.677 324.454C435.677 323.494 435.912 322.481 436.381 321.414C436.872 320.348 437.512 319.345 438.301 318.406C439.112 317.468 439.997 316.71 440.957 316.134C441.917 315.537 442.866 315.238 443.805 315.238C444.296 315.238 444.744 315.366 445.149 315.622C445.576 315.878 445.789 316.401 445.789 317.19C445.789 318.001 445.544 318.769 445.053 319.494C444.584 320.198 443.954 320.828 443.165 321.382C442.397 321.937 441.544 322.396 440.605 322.758C439.688 323.1 438.77 323.313 437.853 323.398C437.81 323.612 437.778 323.814 437.757 324.006C437.736 324.198 437.725 324.38 437.725 324.55C437.725 324.87 437.757 325.19 437.821 325.51C437.906 325.83 438.045 326.129 438.237 326.406C438.429 326.662 438.685 326.865 439.005 327.014C439.346 327.164 439.762 327.238 440.253 327.238C441.17 327.238 442.077 326.982 442.973 326.47C443.869 325.937 444.701 325.244 445.469 324.39C446.237 323.537 446.888 322.598 447.421 321.574L447.805 321.862C447.229 323.142 446.493 324.252 445.597 325.19C444.722 326.129 443.762 326.854 442.717 327.366C441.693 327.9 440.648 328.166 439.581 328.166ZM438.013 322.79C438.589 322.598 439.24 322.321 439.965 321.958C440.69 321.574 441.384 321.126 442.045 320.614C442.728 320.102 443.282 319.537 443.709 318.918C444.157 318.3 444.381 317.649 444.381 316.966C444.381 316.732 444.338 316.55 444.253 316.422C444.168 316.294 443.986 316.23 443.709 316.23C443.197 316.23 442.653 316.433 442.077 316.838C441.501 317.222 440.946 317.734 440.413 318.374C439.88 319.014 439.4 319.718 438.973 320.486C438.546 321.254 438.226 322.022 438.013 322.79ZM455.638 329.542C455.168 329.265 454.87 328.966 454.742 328.646C454.614 328.348 454.55 328.092 454.55 327.878C454.55 327.281 454.763 326.47 455.19 325.446C455.638 324.422 456.224 323.26 456.95 321.958C457.696 320.636 458.518 319.27 459.414 317.862C458.624 317.798 457.952 317.756 457.398 317.734C456.843 317.713 456.363 317.702 455.958 317.702H454.838C455.072 317.084 455.478 316.657 456.054 316.422C456.651 316.166 457.355 316.038 458.166 316.038C458.528 316.038 458.902 316.06 459.286 316.102C459.67 316.145 460.064 316.198 460.47 316.262C461.558 314.62 462.667 313.03 463.798 311.494C464.95 309.937 466.016 308.561 466.998 307.366C468 306.15 468.832 305.233 469.494 304.614C470.112 304.017 470.624 303.718 471.03 303.718C471.264 303.718 471.52 303.814 471.798 304.006C472.096 304.177 472.406 304.422 472.726 304.742C472.512 304.913 472.235 305.372 471.894 306.118C471.574 306.844 471.222 307.761 470.838 308.87C470.475 309.98 470.112 311.196 469.75 312.518C469.387 313.841 469.046 315.196 468.726 316.582C468.427 317.948 468.182 319.249 467.99 320.486C467.819 321.724 467.734 322.812 467.734 323.75C467.734 324.561 467.819 325.19 467.99 325.638C468.182 326.086 468.491 326.31 468.918 326.31C469.472 326.31 470.102 325.926 470.806 325.158C471.51 324.39 472.278 323.196 473.11 321.574L473.43 321.894C472.79 323.601 471.968 324.998 470.966 326.086C469.984 327.174 468.96 327.718 467.894 327.718C467.019 327.718 466.379 327.334 465.974 326.566C465.59 325.777 465.398 324.732 465.398 323.43C465.398 322.748 465.44 322.001 465.526 321.19C465.632 320.38 465.771 319.537 465.942 318.662C465.003 318.513 464.139 318.396 463.35 318.31C462.582 318.204 461.867 318.108 461.206 318.022C460.203 319.878 459.222 321.788 458.262 323.75C457.323 325.713 456.448 327.644 455.638 329.542ZM466.166 317.542C466.486 316.134 466.859 314.716 467.286 313.286C467.712 311.836 468.16 310.46 468.63 309.158C469.12 307.857 469.579 306.716 470.006 305.734C469.344 306.14 468.576 306.865 467.702 307.91C466.848 308.934 465.942 310.193 464.982 311.686C464.022 313.158 463.04 314.78 462.038 316.55C462.763 316.7 463.478 316.87 464.182 317.062C464.907 317.233 465.568 317.393 466.166 317.542ZM478.005 327.59C477.279 327.59 476.703 327.398 476.277 327.014C475.871 326.63 475.669 326.129 475.669 325.51C475.669 324.87 475.818 324.198 476.117 323.494C476.415 322.79 476.703 322.097 476.981 321.414C477.279 320.71 477.429 320.081 477.429 319.526C477.429 318.844 477.226 318.342 476.821 318.022C476.437 317.681 476.042 317.372 475.637 317.094C475.146 318.353 474.634 319.548 474.101 320.678C473.567 321.809 473.13 322.662 472.789 323.238L472.501 322.694C472.799 322.14 473.183 321.329 473.653 320.262C474.143 319.196 474.623 317.98 475.093 316.614C474.879 316.401 474.773 316.145 474.773 315.846C474.773 315.206 474.954 314.684 475.317 314.278C475.679 313.873 475.946 313.67 476.117 313.67C476.351 313.67 476.479 313.777 476.501 313.99C476.543 314.182 476.565 314.332 476.565 314.438C476.565 314.545 476.501 314.758 476.373 315.078C476.266 315.377 476.213 315.558 476.213 315.622C476.213 315.921 476.373 316.198 476.693 316.454C477.034 316.689 477.418 316.966 477.845 317.286C478.271 317.585 478.645 317.958 478.965 318.406C479.306 318.833 479.477 319.388 479.477 320.07C479.477 320.71 479.338 321.361 479.061 322.022C478.805 322.684 478.538 323.313 478.261 323.91C478.005 324.508 477.877 325.03 477.877 325.478C477.877 325.862 477.973 326.118 478.165 326.246C478.357 326.374 478.581 326.438 478.837 326.438C479.349 326.438 479.871 326.278 480.405 325.958C480.959 325.638 481.493 325.233 482.005 324.742C482.517 324.252 482.975 323.74 483.381 323.206C483.786 322.652 484.085 322.14 484.277 321.67L484.693 321.99C484.287 322.886 483.733 323.772 483.029 324.646C482.325 325.5 481.535 326.204 480.661 326.758C479.807 327.313 478.922 327.59 478.005 327.59ZM487.018 328.55C485.994 328.55 485.14 328.209 484.458 327.526C483.775 326.844 483.434 325.82 483.434 324.454C483.434 323.388 483.636 322.353 484.042 321.35C484.468 320.326 485.023 319.409 485.706 318.598C486.388 317.788 487.146 317.148 487.978 316.678C488.81 316.188 489.631 315.942 490.442 315.942C491.316 315.942 491.914 316.198 492.234 316.71C492.554 317.222 492.714 317.756 492.714 318.31C492.714 318.929 492.564 319.473 492.266 319.942C491.988 320.412 491.604 320.646 491.114 320.646C490.751 320.646 490.442 320.486 490.186 320.166C490.506 319.996 490.783 319.654 491.018 319.142C491.252 318.609 491.37 318.108 491.37 317.638C491.37 317.382 491.316 317.19 491.21 317.062C491.124 316.913 490.943 316.838 490.666 316.838C490.09 316.838 489.492 317.094 488.874 317.606C488.276 318.118 487.711 318.78 487.178 319.59C486.666 320.401 486.239 321.254 485.898 322.15C485.578 323.046 485.418 323.889 485.418 324.678C485.418 325.34 485.578 325.948 485.898 326.502C486.218 327.057 486.836 327.334 487.754 327.334C488.607 327.334 489.46 327.1 490.314 326.63C491.188 326.161 491.999 325.489 492.746 324.614C493.492 323.74 494.09 322.716 494.538 321.542L494.954 321.862C494.463 323.142 493.791 324.294 492.938 325.318C492.084 326.321 491.146 327.11 490.122 327.686C489.098 328.262 488.063 328.55 487.018 328.55ZM495.442 327.974C495.036 327.974 494.716 327.633 494.482 326.95C494.247 326.268 494.13 325.5 494.13 324.646C494.13 323.622 494.3 322.406 494.642 320.998C494.983 319.59 495.431 318.108 495.986 316.55C496.54 314.993 497.159 313.468 497.842 311.974C498.546 310.481 499.26 309.126 499.986 307.91C500.711 306.694 501.394 305.724 502.034 304.998C502.674 304.273 503.228 303.91 503.698 303.91C504.082 303.91 504.348 304.145 504.498 304.614C504.668 305.062 504.754 305.5 504.754 305.926C504.754 306.524 504.615 307.249 504.338 308.102C504.082 308.956 503.719 309.873 503.25 310.854C502.78 311.814 502.236 312.764 501.618 313.702C500.999 314.641 500.327 315.505 499.602 316.294C498.876 317.062 498.14 317.67 497.394 318.118C497.138 318.737 496.914 319.43 496.722 320.198C496.551 320.966 496.423 321.724 496.338 322.47C496.252 323.196 496.21 323.846 496.21 324.422C496.21 324.657 496.21 324.86 496.21 325.03C496.231 325.201 496.252 325.361 496.274 325.51C496.572 324.636 496.892 323.793 497.234 322.982C497.596 322.15 497.98 321.393 498.386 320.71C498.791 320.006 499.218 319.398 499.666 318.886C500.135 318.353 500.626 317.948 501.138 317.67C501.65 317.372 502.194 317.222 502.77 317.222C503.367 317.222 503.836 317.372 504.178 317.67C504.54 317.948 504.796 318.31 504.946 318.758C505.116 319.185 505.202 319.633 505.202 320.102C505.202 320.764 505.084 321.404 504.85 322.022C504.636 322.641 504.412 323.238 504.178 323.814C503.943 324.39 503.826 324.945 503.826 325.478C503.826 325.905 503.911 326.214 504.082 326.406C504.274 326.598 504.508 326.694 504.786 326.694C505.276 326.694 505.82 326.46 506.418 325.99C507.036 325.521 507.644 324.902 508.242 324.134C508.839 323.345 509.351 322.492 509.778 321.574L510.194 321.958C509.746 323.004 509.202 323.953 508.562 324.806C507.922 325.638 507.218 326.3 506.45 326.79C505.682 327.281 504.882 327.526 504.05 327.526C503.324 327.526 502.77 327.334 502.385 326.95C502.023 326.566 501.842 326.086 501.842 325.51C501.842 325.062 501.927 324.561 502.098 324.006C502.268 323.452 502.428 322.886 502.578 322.31C502.748 321.734 502.834 321.19 502.834 320.678C502.834 320.124 502.716 319.729 502.482 319.494C502.247 319.26 501.959 319.142 501.618 319.142C501.084 319.142 500.604 319.356 500.178 319.782C499.751 320.209 499.356 320.764 498.994 321.446C498.652 322.108 498.322 322.812 498.002 323.558C497.703 324.305 497.415 325.02 497.138 325.702C496.86 326.364 496.583 326.908 496.306 327.334C496.028 327.761 495.74 327.974 495.442 327.974ZM497.81 316.87C498.407 316.401 498.983 315.804 499.538 315.078C500.114 314.353 500.647 313.585 501.138 312.774C501.628 311.942 502.066 311.132 502.45 310.342C502.834 309.553 503.132 308.838 503.345 308.198C503.559 307.558 503.666 307.078 503.666 306.758C503.666 306.652 503.655 306.588 503.634 306.566C503.612 306.524 503.58 306.502 503.538 306.502C503.388 306.502 503.079 306.801 502.61 307.398C502.162 307.974 501.639 308.753 501.042 309.734C500.444 310.716 499.858 311.825 499.282 313.062C498.706 314.3 498.215 315.569 497.81 316.87ZM511.46 327.59C510.628 327.59 510.01 327.324 509.604 326.79C509.199 326.278 508.996 325.649 508.996 324.902C508.996 324.412 509.082 323.793 509.252 323.046C509.444 322.3 509.69 321.521 509.988 320.71C510.287 319.878 510.628 319.1 511.012 318.374C511.418 317.649 511.844 317.062 512.292 316.614C512.74 316.145 513.178 315.91 513.604 315.91C513.796 315.91 513.956 315.974 514.084 316.102C514.234 316.209 514.308 316.38 514.308 316.614C514.308 316.87 514.138 317.286 513.796 317.862C513.476 318.438 513.092 319.1 512.644 319.846C512.196 320.593 511.802 321.382 511.46 322.214C511.14 323.025 510.98 323.804 510.98 324.55C510.98 325.318 511.108 325.83 511.364 326.086C511.62 326.342 512.015 326.47 512.548 326.47C513.274 326.47 514.042 326.108 514.852 325.382C515.684 324.657 516.559 323.388 517.476 321.574L517.764 321.894C517.146 323.729 516.25 325.137 515.076 326.118C513.924 327.1 512.719 327.59 511.46 327.59ZM515.3 312.934C514.959 312.934 514.65 312.849 514.372 312.678C514.116 312.508 513.988 312.241 513.988 311.878C513.988 311.43 514.244 311.046 514.756 310.726C515.29 310.385 515.812 310.214 516.324 310.214C516.644 310.214 516.9 310.289 517.092 310.438C517.284 310.588 517.38 310.844 517.38 311.206C517.38 311.612 517.156 312.006 516.708 312.39C516.282 312.753 515.812 312.934 515.3 312.934ZM519.595 328.23C518.678 328.23 517.974 327.964 517.483 327.43C516.992 326.897 516.747 326.108 516.747 325.062C516.747 324.124 516.918 322.972 517.259 321.606C517.622 320.22 518.07 318.801 518.603 317.35C518.39 317.308 518.187 317.276 517.995 317.254C517.803 317.212 517.622 317.158 517.451 317.094V316.518C517.622 316.54 517.824 316.561 518.059 316.582C518.294 316.604 518.56 316.625 518.859 316.646C519.307 315.494 519.787 314.385 520.299 313.318C520.811 312.23 521.312 311.27 521.803 310.438C522.315 309.585 522.795 308.913 523.243 308.422C523.712 307.91 524.107 307.654 524.427 307.654C524.598 307.654 524.747 307.718 524.875 307.846C525.024 307.953 525.099 308.124 525.099 308.358C525.099 308.721 524.875 309.318 524.427 310.15C523.979 310.961 523.424 311.932 522.763 313.062C522.102 314.193 521.462 315.42 520.843 316.742C521.035 316.742 521.227 316.742 521.419 316.742C521.632 316.742 521.835 316.742 522.027 316.742C522.731 316.742 523.467 316.732 524.235 316.71C525.024 316.689 525.814 316.636 526.603 316.55V317.126C525.43 317.254 524.374 317.35 523.435 317.414C522.518 317.478 521.696 317.51 520.971 317.51C520.886 317.51 520.8 317.51 520.715 317.51C520.651 317.51 520.576 317.51 520.491 317.51C520 318.641 519.584 319.804 519.243 320.998C518.902 322.193 518.731 323.356 518.731 324.486C518.731 325.404 518.87 326.065 519.147 326.47C519.424 326.854 519.883 327.046 520.523 327.046C521.632 327.046 522.72 326.556 523.787 325.574C524.854 324.593 525.792 323.26 526.603 321.574L527.019 321.894C526.507 323.089 525.856 324.166 525.067 325.126C524.299 326.086 523.446 326.844 522.507 327.398C521.568 327.953 520.598 328.23 519.595 328.23ZM529.456 328.166C528.155 328.166 527.173 327.804 526.512 327.078C525.872 326.374 525.552 325.5 525.552 324.454C525.552 323.494 525.787 322.481 526.256 321.414C526.747 320.348 527.387 319.345 528.176 318.406C528.987 317.468 529.872 316.71 530.832 316.134C531.792 315.537 532.741 315.238 533.68 315.238C534.171 315.238 534.619 315.366 535.024 315.622C535.451 315.878 535.664 316.401 535.664 317.19C535.664 318.001 535.419 318.769 534.928 319.494C534.459 320.198 533.829 320.828 533.04 321.382C532.272 321.937 531.419 322.396 530.48 322.758C529.563 323.1 528.645 323.313 527.728 323.398C527.685 323.612 527.653 323.814 527.632 324.006C527.611 324.198 527.6 324.38 527.6 324.55C527.6 324.87 527.632 325.19 527.696 325.51C527.781 325.83 527.92 326.129 528.112 326.406C528.304 326.662 528.56 326.865 528.88 327.014C529.221 327.164 529.637 327.238 530.128 327.238C531.045 327.238 531.952 326.982 532.848 326.47C533.744 325.937 534.576 325.244 535.344 324.39C536.112 323.537 536.763 322.598 537.296 321.574L537.68 321.862C537.104 323.142 536.368 324.252 535.472 325.19C534.597 326.129 533.637 326.854 532.592 327.366C531.568 327.9 530.523 328.166 529.456 328.166ZM527.888 322.79C528.464 322.598 529.115 322.321 529.84 321.958C530.565 321.574 531.259 321.126 531.92 320.614C532.603 320.102 533.157 319.537 533.584 318.918C534.032 318.3 534.256 317.649 534.256 316.966C534.256 316.732 534.213 316.55 534.128 316.422C534.043 316.294 533.861 316.23 533.584 316.23C533.072 316.23 532.528 316.433 531.952 316.838C531.376 317.222 530.821 317.734 530.288 318.374C529.755 319.014 529.275 319.718 528.848 320.486C528.421 321.254 528.101 322.022 527.888 322.79ZM540.08 328.55C539.056 328.55 538.203 328.209 537.52 327.526C536.838 326.844 536.496 325.82 536.496 324.454C536.496 323.388 536.699 322.353 537.104 321.35C537.531 320.326 538.086 319.409 538.768 318.598C539.451 317.788 540.208 317.148 541.04 316.678C541.872 316.188 542.694 315.942 543.504 315.942C544.379 315.942 544.976 316.198 545.296 316.71C545.616 317.222 545.776 317.756 545.776 318.31C545.776 318.929 545.627 319.473 545.328 319.942C545.051 320.412 544.667 320.646 544.176 320.646C543.814 320.646 543.504 320.486 543.248 320.166C543.568 319.996 543.846 319.654 544.08 319.142C544.315 318.609 544.432 318.108 544.432 317.638C544.432 317.382 544.379 317.19 544.272 317.062C544.187 316.913 544.006 316.838 543.728 316.838C543.152 316.838 542.555 317.094 541.936 317.606C541.339 318.118 540.774 318.78 540.24 319.59C539.728 320.401 539.302 321.254 538.96 322.15C538.64 323.046 538.48 323.889 538.48 324.678C538.48 325.34 538.64 325.948 538.96 326.502C539.28 327.057 539.899 327.334 540.816 327.334C541.67 327.334 542.523 327.1 543.376 326.63C544.251 326.161 545.062 325.489 545.808 324.614C546.555 323.74 547.152 322.716 547.6 321.542L548.016 321.862C547.526 323.142 546.854 324.294 546 325.318C545.147 326.321 544.208 327.11 543.184 327.686C542.16 328.262 541.126 328.55 540.08 328.55ZM549.72 328.23C548.803 328.23 548.099 327.964 547.608 327.43C547.117 326.897 546.872 326.108 546.872 325.062C546.872 324.124 547.043 322.972 547.384 321.606C547.747 320.22 548.195 318.801 548.728 317.35C548.515 317.308 548.312 317.276 548.12 317.254C547.928 317.212 547.747 317.158 547.576 317.094V316.518C547.747 316.54 547.949 316.561 548.184 316.582C548.419 316.604 548.685 316.625 548.984 316.646C549.432 315.494 549.912 314.385 550.424 313.318C550.936 312.23 551.437 311.27 551.928 310.438C552.44 309.585 552.92 308.913 553.368 308.422C553.837 307.91 554.232 307.654 554.552 307.654C554.723 307.654 554.872 307.718 555 307.846C555.149 307.953 555.224 308.124 555.224 308.358C555.224 308.721 555 309.318 554.552 310.15C554.104 310.961 553.549 311.932 552.888 313.062C552.227 314.193 551.587 315.42 550.968 316.742C551.16 316.742 551.352 316.742 551.544 316.742C551.757 316.742 551.96 316.742 552.152 316.742C552.856 316.742 553.592 316.732 554.36 316.71C555.149 316.689 555.939 316.636 556.728 316.55V317.126C555.555 317.254 554.499 317.35 553.56 317.414C552.643 317.478 551.821 317.51 551.096 317.51C551.011 317.51 550.925 317.51 550.84 317.51C550.776 317.51 550.701 317.51 550.616 317.51C550.125 318.641 549.709 319.804 549.368 320.998C549.027 322.193 548.856 323.356 548.856 324.486C548.856 325.404 548.995 326.065 549.272 326.47C549.549 326.854 550.008 327.046 550.648 327.046C551.757 327.046 552.845 326.556 553.912 325.574C554.979 324.593 555.917 323.26 556.728 321.574L557.144 321.894C556.632 323.089 555.981 324.166 555.192 325.126C554.424 326.086 553.571 326.844 552.632 327.398C551.693 327.953 550.723 328.23 549.72 328.23ZM559.485 328.39C558.482 328.39 557.682 328.166 557.085 327.718C556.509 327.292 556.104 326.758 555.869 326.118C555.613 325.478 555.485 324.838 555.485 324.198C555.485 323.558 555.57 323.068 555.741 322.726C555.912 322.385 556.114 322.129 556.349 321.958C556.605 321.788 556.84 321.66 557.053 321.574C557.288 321.489 557.448 321.404 557.533 321.318C558.173 320.614 558.76 319.878 559.293 319.11C559.826 318.342 560.296 317.532 560.701 316.678V316.294C560.701 315.505 560.829 314.95 561.085 314.63C561.362 314.289 561.65 314.118 561.949 314.118C562.12 314.118 562.248 314.161 562.333 314.246C562.418 314.332 562.461 314.428 562.461 314.534C562.461 314.641 562.429 314.812 562.365 315.046C562.301 315.281 562.269 315.58 562.269 315.942C562.269 316.646 562.408 317.414 562.685 318.246C562.962 319.057 563.24 319.921 563.517 320.838C563.794 321.734 563.933 322.673 563.933 323.654C563.933 323.932 563.912 324.209 563.869 324.486C563.848 324.742 563.805 324.988 563.741 325.222C564.488 325.094 565.192 324.764 565.853 324.23C566.514 323.676 567.154 322.801 567.773 321.606L568.061 321.926C567.656 323.1 567.048 323.996 566.237 324.614C565.426 325.212 564.541 325.585 563.581 325.734C563.24 326.652 562.696 327.324 561.949 327.75C561.224 328.177 560.402 328.39 559.485 328.39ZM559.549 327.27C559.805 327.27 560.146 327.185 560.573 327.014C561 326.844 561.33 326.406 561.565 325.702C560.669 325.532 559.869 325.18 559.165 324.646C558.482 324.113 557.97 323.58 557.629 323.046C557.16 323.068 556.925 323.441 556.925 324.166C556.925 324.934 557.149 325.649 557.597 326.31C558.066 326.95 558.717 327.27 559.549 327.27ZM561.725 325.19C561.768 324.977 561.8 324.753 561.821 324.518C561.842 324.284 561.853 324.006 561.853 323.686C561.853 322.684 561.725 321.692 561.469 320.71C561.234 319.708 561.032 318.769 560.861 317.894C560.37 318.705 559.848 319.484 559.293 320.23C558.76 320.956 558.248 321.564 557.757 322.054C558.077 322.737 558.568 323.377 559.229 323.974C559.912 324.572 560.744 324.977 561.725 325.19Z" fill="white"/>
<path d="M315.973 184.079C315.455 181.967 314.639 180.114 313.523 178.52C312.407 176.886 311.012 175.512 309.339 174.396C307.705 173.24 305.792 172.384 303.601 171.826C301.449 171.228 299.078 170.929 296.488 170.929C290.909 170.929 286.148 172.264 282.203 174.934C278.298 177.604 275.309 181.449 273.237 186.47C271.205 191.49 270.189 197.547 270.189 204.64C270.189 211.812 271.165 217.949 273.118 223.049C275.07 228.15 277.979 232.055 281.844 234.764C285.709 237.474 290.511 238.829 296.249 238.829C301.31 238.829 305.514 238.092 308.861 236.617C312.248 235.143 314.778 233.051 316.452 230.341C318.125 227.632 318.962 224.444 318.962 220.778L324.7 221.376H296.727V197.706H350.999V214.681C350.999 225.839 348.629 235.382 343.887 243.311C339.184 251.202 332.689 257.258 324.401 261.482C316.153 265.666 306.689 267.758 296.01 267.758C284.096 267.758 273.636 265.228 264.63 260.167C255.625 255.106 248.592 247.894 243.531 238.53C238.51 229.166 236 218.029 236 205.118C236 194.997 237.534 186.031 240.602 178.221C243.71 170.411 248.014 163.816 253.513 158.437C259.012 153.018 265.367 148.933 272.58 146.184C279.792 143.395 287.523 142 295.771 142C303.023 142 309.757 143.036 315.973 145.108C322.229 147.14 327.748 150.049 332.53 153.835C337.352 157.58 341.237 162.023 344.185 167.164C347.134 172.304 348.927 177.942 349.565 184.079H315.973ZM432.482 181.927C432.163 177.942 430.669 174.834 427.999 172.603C425.369 170.371 421.364 169.256 415.985 169.256C412.558 169.256 409.749 169.674 407.558 170.511C405.406 171.308 403.812 172.403 402.776 173.798C401.739 175.193 401.202 176.787 401.162 178.58C401.082 180.054 401.341 181.389 401.939 182.584C402.576 183.74 403.572 184.796 404.927 185.752C406.282 186.669 408.016 187.506 410.127 188.263C412.24 189.02 414.75 189.697 417.658 190.295L427.7 192.447C434.474 193.881 440.272 195.774 445.094 198.125C449.915 200.476 453.86 203.245 456.928 206.433C459.996 209.581 462.248 213.127 463.682 217.072C465.157 221.017 465.913 225.321 465.953 229.983C465.913 238.032 463.902 244.846 459.917 250.425C455.932 256.003 450.234 260.247 442.822 263.156C435.45 266.065 426.585 267.519 416.224 267.519C405.585 267.519 396.3 265.945 388.371 262.797C380.481 259.649 374.344 254.807 369.962 248.273C365.618 241.697 363.426 233.29 363.387 223.049H394.946C395.145 226.795 396.081 229.943 397.755 232.493C399.429 235.043 401.78 236.976 404.807 238.291C407.876 239.606 411.522 240.263 415.746 240.263C419.293 240.263 422.261 239.825 424.652 238.948C427.043 238.072 428.856 236.856 430.091 235.302C431.326 233.748 431.964 231.975 432.003 229.983C431.964 228.11 431.346 226.476 430.151 225.082C428.995 223.647 427.083 222.372 424.412 221.256C421.743 220.101 418.137 219.025 413.594 218.029L401.401 215.399C390.562 213.048 382.015 209.123 375.759 203.624C369.543 198.085 366.455 190.534 366.494 180.971C366.455 173.2 368.527 166.406 372.711 160.589C376.935 154.731 382.772 150.169 390.224 146.901C397.715 143.634 406.302 142 415.985 142C425.867 142 434.414 143.654 441.626 146.961C448.84 150.268 454.398 154.93 458.303 160.947C462.248 166.924 464.24 173.918 464.28 181.927H432.482ZM505.626 266.084H469.764L510.169 143.674H555.595L596 266.084H560.138L533.36 177.384H532.404L505.626 266.084ZM498.932 217.79H566.353V242.654H498.932V217.79Z" fill="white"/>
</svg>
